<?xml version="1.0" encoding="utf-8"?>
<!-- Generator: Adobe Illustrator 19.2.0, SVG Export Plug-In . SVG Version: 6.00 Build 0)  -->
<svg version="1.1" id="Ebene_1" xmlns="http://www.w3.org/2000/svg" xmlns:xlink="http://www.w3.org/1999/xlink" x="0px" y="0px"
	 viewBox="0 0 535 535" style="enable-background:new 0 0 535 535;" xml:space="preserve">
<style type="text/css">
	.st0{fill:#2F2F2F;}
	.st1{fill:#2A2A2A;}
	.st2{fill:#2B2B2B;}
	.st3{fill:#2C2C2C;}
	.st4{fill:#2D2D2D;}
	.st5{fill:#292929;}
	.st6{fill:#3F3F3F;}
	.st7{fill:#5A5A5A;}
	.st8{fill:#5E5E5E;}
	.st9{fill:#5C5C5C;}
	.st10{fill:#4D4D4D;}
	.st11{fill:#383838;}
	.st12{fill:#4A4A4A;}
	.st13{fill:#3B3B3B;}
	.st14{fill:#616161;}
	.st15{fill:#6B6B6B;}
	.st16{fill:#3D3D3D;}
	.st17{fill:#8E8E8E;}
	.st18{fill:#585858;}
	.st19{fill:#AAAAAA;}
	.st20{fill:#4B4B4B;}
	.st21{fill:#3C3C3C;}
	.st22{fill:#393939;}
	.st23{fill:#474747;}
	.st24{fill:#7B7B7B;}
	.st25{fill:#B3B3B3;}
	.st26{fill:#C0C0C0;}
	.st27{fill:#5F5F5F;}
	.st28{fill:#727272;}
	.st29{fill:#A5A5A5;}
	.st30{fill:#787878;}
	.st31{fill:#939393;}
	.st32{fill:#898989;}
	.st33{fill:#7C7C7C;}
	.st34{fill:#707070;}
	.st35{fill:#A3A3A3;}
	.st36{fill:#CFCFCF;}
	.st37{fill:#8B8B8B;}
	.st38{fill:#959595;}
	.st39{fill:#C9C9C9;}
	.st40{fill:#A1A1A1;}
	.st41{fill:#B2B2B2;}
	.st42{fill:#E9E9E9;}
	.st43{fill:#B1B1B1;}
	.st44{fill:#CECECE;}
	.st45{fill:#FEFEFE;}
	.st46{fill:#272727;}
	.st47{fill:#252525;}
	.st48{fill:#262626;}
	.st49{fill:#282828;}
	.st50{fill:#242424;}
	.st51{fill:#737373;}
	.st52{fill:#717171;}
	.st53{fill:#6F6F6F;}
	.st54{fill:#D0D0D0;}
	.st55{fill:#DBDBDB;}
	.st56{fill:#D7D7D8;}
	.st57{fill:#EFEFEF;}
	.st58{fill:#E8E8E8;}
	.st59{fill:#DEDEDE;}
	.st60{fill:#CBCBCB;}
	.st61{fill:#868788;}
	.st62{fill:#DADADC;}
	.st63{fill:#D9DADC;}
	.st64{fill:#9FA0A2;}
	.st65{fill:#E3E4E7;}
	.st66{fill:#FBFBFB;}
</style>
<g>
	<path class="st0" d="M299.4,535c-43.9,0-87.8,0-131.7,0c-1.6-0.6-3.2-0.1-4.8-0.3c-1.5,0-3.1,0-4.6,0c-1.6,0-3.1,0-4.7,0
		c-1.9,0-3.8,0-5.6,0c-1.7,0-3.4,0-5.1,0c-0.9,0-1.8,0-2.7,0c-1.1,0.1-2.3-0.3-3.3,0.3c-0.5,0-1,0-1.6,0c-3.5-0.4-7.1-0.5-10.6-0.5
		c-16.5-0.1-32.6-2.6-48.2-8c-15-5.1-28-13.5-39.4-24.4c-9.2-8.8-16.8-18.8-22.8-30c-6.2-11.6-9.4-24.1-11.6-36.9
		c-2-11.3-2.2-22.6-2.4-34c0-0.7,0.2-1.4-0.3-2c0-0.5,0-1,0-1.6c0.6-1.4,0.1-2.8,0.3-4.2c0-0.9,0-1.8,0-2.6c0-1.2,0-2.4,0-3.6
		c0-1.2,0-2.5,0-3.7c0-1.4,0-2.8,0-4.2c0-2.5,0-5.1,0-7.6c-0.1-2.3,0.3-4.7-0.3-6.9c0-64.8,0-129.6,0-194.4c0.6-2.3,0.1-4.6,0.3-6.9
		c0-2.5,0-5.1,0-7.6c0-1.4,0-2.8,0-4.2c0-1.2,0-2.5,0-3.7c0-1.2,0-2.4,0-3.6c0-0.9,0-1.8,0-2.7c-0.1-1.4,0.3-2.9-0.3-4.3
		c0-0.5,0-1,0-1.6c0.4-3.8,0.5-7.6,0.5-11.4C0.7,108.1,3.1,92,8.5,76.5c5.1-14.9,13.5-28,24.4-39.4c8.7-9.2,18.7-16.7,29.8-22.6
		C74.3,8.2,86.9,5,99.8,2.7c11.1-2,22.3-2.1,33.5-2.4c0.7,0,1.4,0.2,2-0.3c0.5,0,1,0,1.6,0c1,0.6,2.2,0.1,3.3,0.3
		c1.5-0.1,3.1,0.3,4.6-0.3c0.3,0,0.7,0,1,0c1.5,0.5,3,0.1,4.5,0.3c2.7,0,5.3,0,8,0c1.6,0,3.1,0,4.7,0c2-0.1,3.9,0.3,5.9-0.3
		c65.8,0,131.7,0,197.5,0c1.9,0.6,3.9,0.1,5.9,0.3c1.6,0,3.1,0,4.7,0c2.7,0,5.3,0,8,0c1.5-0.1,3,0.3,4.5-0.3c0.3,0,0.7,0,1,0
		c1.2,0.6,2.5,0.1,3.7,0.3c1,0,2,0,3,0c0.9,0,1.7,0,2.6,0C418,0.2,436.3,1.6,454,7c16.6,5,31,13.7,43.5,25.5
		c9.1,8.5,16.6,18.3,22.5,29.2c5.1,9.4,8.4,19.5,10.7,29.9c2.5,11.5,3.7,23.2,3.8,34.9c0,3.1-0.2,6.2,0.4,9.3c0,1.6,0,3.1,0,4.7
		c-0.6,1.2-0.1,2.5-0.3,3.8c0,1,0,2.1,0,3.1c0,1.4,0,2.8,0,4.2c0,2.7,0,5.5,0,8.2c0.1,3.8-0.3,7.7,0.3,11.5c0,24.7,0,49.5,0,74.2
		c-1.7,0.9-2.5-0.6-3.4-1.5c-6.2-6.1-12.3-12.3-18.4-18.4c-14.6-14.6-29.2-29.2-43.8-43.8c-0.8-1.1-1.9-1.8-2.8-2.8
		c-9.1-9.1-18.2-18.3-27.4-27.3c-16.4-16.3-32.7-32.7-49.3-48.9c0.6,4.6-0.1,9.2,0.4,13.7c0.6,5.5,0.5,11.1,0.8,16.7
		c0.3,6.5,0.9,13,0.7,19.5c0,1.3,0.3,2.7-1,3.6c-1.4-0.4-1.4-1.7-1.4-2.8c-0.1-9.5-0.8-18.9-1.2-28.4c-0.3-7.4-0.3-14.8-1-22.1
		c-0.2-2.1-1-2.8-3.3-2.7c-17.6,1.1-35.1,1.3-52.7,0.8c-10.9-0.3-21.9-0.6-32.8-1.4c-4.1-0.3-8.2-0.2-12.2-0.5
		c-10.9-0.6-21.9-1.1-32.9-0.6c-9,0.5-18,1.8-26.8,3.8c-25.7,5.6-49,16.3-69.4,32.9c-11.3,9.2-21,20-29.2,32.2
		c-8.4,12.7-15.1,26.2-20.3,40.5c-4.5,12.5-7.4,25.4-8.9,38.6c-0.5,4.8-1,9.7-1,14.6c-0.2,12.3,1.3,24.5,3.6,36.5
		c2.7,14,7,27.5,13.3,40.3c9,18.2,21.6,33.6,37.1,46.7c1.3,1.1,2.9,2,3.6,3.7c0.2,0.4-0.4,0.8,0.2,1.5c16.7,16,32.8,32.6,49.3,48.9
		c8.3,8.4,16.7,16.7,25.1,25.1c7.6,7.7,15.3,15.3,23,23c7.3,7.4,14.6,14.6,21.9,21.9c7.4,7.5,15,15,22.4,22.5
		C298,532.6,299.8,533.2,299.4,535z"/>
	<path class="st1" d="M296.8,531.9c-7.7-7.3-15.2-14.8-22.5-22.5c0.3-1.1,1.1-1.8,1.9-2.4c4.5-4,8.9-8.3,13.1-12.7
		c5.1-5.4,10.6-10.3,15.6-15.7c2.8-3.1,6.1-5.7,9-8.6c3.2-3.2,6.3-6.4,9.5-9.7c6.9-7.1,14-14,21-21c4.3-4.4,8.6-8.8,13-13
		c6-5.7,11.4-11.9,17.4-17.6c2.5-2.4,5-4.9,7.5-7.4c0.5-0.9,1.3-1.4,2.2-1.8c0.2-0.1,0.4-0.2,0.6-0.3c0.8-0.2,1.5-0.5,2.2-0.9
		c0.2-0.1,0.4-0.2,0.7-0.3c1.7-0.6,3.4-0.9,4.9-1.9c0.2-0.1,0.4-0.3,0.6-0.4c1.5-0.9,1.6-2.5,1.7-4c0.1-1.2-0.2-2.4,0.4-3.5
		c4.5-4.8,9.2-9.4,14-14c5.4-5.3,10.9-10.7,16.1-16.3c3.2-3.4,6.8-6.5,10.1-9.8c3.4-3.4,6.7-6.7,9.9-10.2c3.9-4.2,8.3-7.9,12.2-12.1
		c5.8-6.1,12-11.8,17.6-18.1c4.1-4.6,8.9-8.5,13.3-12.9c9.3-9.5,19.1-18.5,27.9-28.5c2-2.2,4.7-3.7,6.6-5.9c2.7-3.3,5.8-6.2,8.9-9.1
		c0.8-0.8,1.5-1.9,2.8-1c0,14.8,0,29.6,0,44.4c-2.4,2.9-5.1,5.5-7.8,8.1c-5.9,5.6-11,11.9-17,17.3c-7.2,6.5-13.7,13.6-20.5,20.3
		c-8,7.9-15.9,16-23.9,24c-4.6,4.7-9.3,9.4-14.1,13.9c-6.6,6.2-12.6,13-19.2,19.2c-6.2,5.8-11.9,12.2-18.1,18
		c-10,9.5-19.6,19.5-29.3,29.3c-6.8,6.9-13.9,13.5-20.7,20.5c-9.9,10.3-20.3,20.2-30.4,30.4c-7,7-13.8,14.2-21,20.9
		c-4.8,4.4-8.8,9.6-13.6,14C298.8,531.4,298.2,532.7,296.8,531.9z"/>
	<path class="st2" d="M296.8,531.9c2.2-1.1,3.6-3.2,5.2-4.9c5.6-6.2,11.8-11.7,17.6-17.7c3.8-4,8-7.5,11.7-11.6
		c5.3-5.8,11.2-10.9,16.4-16.8c3.1-3.5,7-6.2,10.1-9.7c4-4.5,8.6-8.5,12.6-13c3.2-3.5,6.7-6.6,10.3-9.6c1.5-1.3,2.3-3,3.7-4.3
		c5.9-5.9,12-11.7,17.7-17.8c3.7-3.9,7.5-7.7,11.5-11.2c3.7-3.2,7.1-6.8,10.4-10.5c4.9-5.5,10.8-10,15.7-15.5
		c5.7-6.4,12.2-12,18-18.3c4.3-4.6,9.1-8.6,13.4-13.2c3.4-3.7,7-7.1,10.5-10.6c3.1-3.2,6.3-6.4,9.5-9.5c3.8-3.5,7.2-7.5,10.9-11
		c2.3-2.1,4.5-4.4,6.9-6.5c3.1-2.7,6-5.7,8.7-8.9c3.5-4.3,7.8-7.8,11.7-11.7c1.7-1.7,2.9-4.2,5.6-4.8c0,15,0,30,0,44.9
		c-1.3,2.3-3.2,4.1-5.3,5.7c-1,0.8-1.8,1.6-2.6,2.6c-4.4,5.3-9.8,9.5-14.5,14.5c-3.5,3.7-7.1,7.4-10.8,11c-5.1,5-10,10.1-15.1,15.1
		c-5.3,5.2-10.1,10.8-15.6,15.8c-8.2,7.4-15.4,15.7-23.5,23.3c-3.5,3.3-6.9,6.8-10.2,10.4c-5.2,5.6-11,10.7-16.3,16.2
		c-5.1,5.2-10.2,10.5-15.4,15.5c-7.9,7.6-15.2,15.7-23.4,23.1c-1.9,1.7-3.7,3.7-5.3,5.7c-2.7,3.4-5.9,6.4-9.2,9.2
		c-5.1,4.4-9.3,9.7-14.3,14.1c-4.8,4.2-8.7,9.2-13.4,13.4c-13.6,0-27.2,0-40.8,0C298.5,534,297.6,532.9,296.8,531.9z"/>
	<path class="st3" d="M340.1,535c-0.1-1,0.5-1.5,1.1-2.2c2.6-2.9,5.4-5.6,8.1-8.5c2.5-2.7,5.5-5.1,8.2-7.8
		c3.4-3.5,6.9-6.8,10.4-10.2c2.2-2.2,4.8-4,6.7-6.4c5.1-6.5,11.6-11.5,17.2-17.5c3.6-3.9,7.2-7.7,11-11.2c4.8-4.5,9.5-9.2,14.2-13.9
		c3.5-3.5,7.1-7,10.5-10.6c3-3.1,6.1-6,9.1-9.1c4.6-4.7,9-9.7,13.9-14c4.6-4,8.6-8.7,13-13c5-4.9,10.3-9.5,14.9-14.9
		c3.6-4.2,7.9-7.8,11.7-11.7c4.3-4.4,8.9-8.6,13.1-13.1c2.7-2.8,5.3-5.6,8.1-8.3c2.6-2.6,5.3-5.2,7.9-7.8c2-2.1,4.6-3.5,6.3-6.1
		c2.5-3.6,6.1-6.2,9.5-9c0,8,0,16,0,24c-0.6,2.6-0.1,5.3-0.3,7.9c0,2.6,0,5.1,0,7.6c0,2,0,4.1,0,6.1c0,1.2,0,2.4,0,3.6
		c0,0.5,0,1.1,0,1.6c-0.9,1.8-2.5,3.2-3.9,4.5c-6.8,6.6-13.3,13.5-20.2,20c-3.9,3.7-7.6,7.6-11.3,11.6c-3.5,3.6-7.2,7.1-10.9,10.4
		c-2.5,2.3-4.9,4.7-7.2,7.2c-7,7.4-14.2,14.6-21.5,21.6c-7.2,7-14,14.3-21.3,21.1c-3.6,3.4-6.7,7.2-10.3,10.7
		c-7.7,7.4-15.2,15.1-22.7,22.6c-4.5,4.5-9.2,8.7-13.3,13.6c-0.3,0.4-0.7,0.8-1.3,0.9c-0.8,0-1.7,0-2.5,0c-1.2,0-2.4,0-3.6,0
		c-2.7,0-5.4,0-8,0c-1.5,0-3.1,0-4.6,0c-1.6,0.1-3.3-0.3-4.9,0.3C358.3,535,349.2,535,340.1,535z"/>
	<path class="st4" d="M391.3,534.4c0.5-2.4,2.3-4.1,4-5.3c2.2-1.6,3.7-3.6,5.6-5.4c6.2-5.8,12.1-11.9,18-17.9
		c4.4-4.5,9-8.8,13.4-13.4c2.8-2.9,5.4-6,8.4-8.8c8.2-7.8,16.1-16,24.1-24c4.6-4.6,9.5-8.8,13.7-13.7c2.7-3.2,5.9-5.7,8.7-8.8
		c2.1-2.4,4.5-5,7.2-7c3.8-2.8,6.5-6.7,9.8-10c3.2-3.2,6.7-5.9,9.7-9.3c3.7-4.1,7.9-7.7,11.7-11.7c2.8-2.9,5.3-6.3,9-8.5
		c0.6,0.4,0.3,1,0.3,1.6c0.1,1.4-0.3,2.8,0.3,4.2c0,1,0,2.1,0,3.1c-0.5,3.1-0.5,6.2-0.5,9.3c-0.1,16.6-2.4,32.8-7.6,48.5
		c-4.8,14.7-12.9,27.5-23.3,38.9c-9,9.8-19.5,17.9-31.2,24.1c-9.9,5.3-20.4,8.4-31.3,10.6c-10.4,2.1-20.9,3.2-31.6,3.3
		c-3.6,0-7.3,0-10.9,0.5c-0.3,0-0.7,0-1,0c-0.9-0.5-1.8-0.1-2.7-0.3c-0.8,0-1.6,0-2.4,0C392,534.8,391.6,534.8,391.3,534.4z"/>
	<path class="st5" d="M535,250.3c-1.2,0.1-1.8,1-2.4,1.8c-0.3,0.4-0.5,1-0.9,1.2c-5.2,3.6-8.3,9.1-13.5,12.9
		c-3.1,2.3-5.3,5.8-8.2,8.6c-5.9,5.7-11.6,11.6-17.4,17.5c-4.2,4.3-8.6,8.3-12.9,12.5c-5.4,5.3-10.5,10.9-15.8,16.2
		c-4.3,4.4-9.2,8.4-13.2,13.2c-1.4,1.8-3.7,3.1-5.1,5c-2.3,3.2-5.8,5.2-8.1,8.5c-1.3,1.9-3.4,3.1-5.1,4.7
		c-3.9,3.7-7.4,7.8-11.3,11.4c-4,3.7-7.3,8.1-11.4,11.5c-4.3,3.6-7.9,7.9-12,11.8c-0.5,0.5-0.9,1.1-1.7,1.1
		c-0.6-0.4-0.8-0.9-0.8-1.6c-0.1-3.9-0.3-7.8,0.1-11.7c0.2-1.9,0.3-3.8,0.4-5.7c0.3-9.4,0.4-18.8,1.6-28.2c0.8-1.9,2.4-3.4,3.8-4.8
		c10.3-10.3,20.4-20.9,30.9-31c6.5-6.3,12.6-13.2,19.3-19.3c4.3-3.9,8.2-8.3,12.4-12.3c3.5-3.2,6.6-6.9,10-10.2
		c9.8-9.6,19.5-19.4,29-29.3c2.7-2.8,6-5,8.4-8.1c0.5-0.7,1.2-1.3,2.3-0.9c6.2,6.2,12.5,12.3,18.7,18.5c0.8,0.8,1.4,1.8,2.7,1.9
		C535,247.1,535,248.7,535,250.3z"/>
	<path class="st6" d="M535,171.4c-1.1-3.8-0.3-7.7-0.5-11.5c0.2-0.2,0.3-0.2,0.5,0C535,163.7,535,167.5,535,171.4z"/>
	<path class="st7" d="M535,159.9c-0.2,0-0.3,0-0.5,0c0-2.8,0-5.6,0-8.4c0.2-0.2,0.3-0.2,0.5,0C535,154.3,535,157.1,535,159.9z"/>
	<path class="st8" d="M385.1,0.5c-2.8,0-5.6,0-8.4,0c-0.3-0.1-0.3-0.3,0-0.5c2.8,0,5.6,0,8.4,0c0.2,0.1,0.3,0.2,0.2,0.3
		C385.2,0.4,385.2,0.5,385.1,0.5z"/>
	<path class="st9" d="M376.7,534.5c2.8,0,5.6,0,8.4,0c0.2,0.1,0.2,0.2,0.2,0.3c-0.1,0.1-0.1,0.1-0.2,0.1c-2.8,0-5.6,0-8.4,0
		C376.4,534.9,376.4,534.7,376.7,534.5z"/>
	<path class="st8" d="M158.3,0.5c-2.8,0-5.6,0-8.4,0c-0.2-0.1-0.2-0.2-0.2-0.3C149.8,0,149.9,0,150,0c2.8,0,5.6,0,8.4,0
		C158.6,0.2,158.6,0.3,158.3,0.5z"/>
	<path class="st10" d="M0.5,155.7c0,2.6,0,5.2,0,7.8c-0.2,0.3-0.3,0.3-0.5,0c0-2.6,0-5.2,0-7.8C0.1,155.4,0.3,155.4,0.5,155.7z"/>
	<path class="st11" d="M534.5,371.5c0.3-2.6-0.6-5.3,0.5-7.9c0,2.6,0,5.2,0,7.8C534.9,371.8,534.7,371.8,534.5,371.5z"/>
	<path class="st10" d="M0.5,371.5c0,2.6,0,5.2,0,7.8c-0.2,0.3-0.3,0.3-0.5,0c0-2.6,0-5.2,0-7.8C0.2,371.2,0.3,371.2,0.5,371.5z"/>
	<path class="st12" d="M534.5,371.5c0.2,0,0.3,0,0.5,0c0,2.6,0,5.2,0,7.8c-0.1,0.3-0.3,0.3-0.5,0
		C534.5,376.7,534.5,374.1,534.5,371.5z"/>
	<path class="st13" d="M0.5,371.5c-0.2,0-0.3,0-0.5,0c0-2.3,0-4.5,0-6.8C1.1,366.9,0.3,369.2,0.5,371.5z"/>
	<path class="st13" d="M0,163.5c0.2,0,0.3,0,0.5,0c-0.2,2.3,0.6,4.6-0.5,6.8C0,168.1,0,165.8,0,163.5z"/>
	<path class="st14" d="M534.6,379.4c0.2,0,0.3,0,0.5,0c0,2.1,0,4.2,0,6.3c-0.1,0.3-0.3,0.3-0.4,0
		C534.6,383.5,534.6,381.5,534.6,379.4z"/>
	<path class="st15" d="M147.8,534.6c1.9,0,3.8,0,5.8,0c0.4,0.1,0.4,0.3,0,0.5c-1.9,0-3.8,0-5.7,0c-0.2-0.1-0.3-0.2-0.2-0.3
		C147.7,534.6,147.8,534.6,147.8,534.6z"/>
	<path class="st16" d="M372,0.5c-1.9-0.2-3.9,0.5-5.8-0.5c1.9,0,3.8,0,5.7,0C372.3,0.2,372.3,0.3,372,0.5z"/>
	<path class="st16" d="M168.8,0c-1.8,1.1-3.8,0.3-5.8,0.5c-0.3-0.2-0.3-0.3,0-0.5C164.9,0,166.9,0,168.8,0z"/>
	<path class="st17" d="M147.8,534.6c0,0.1,0,0.3,0,0.4c-1.7,0-3.5,0-5.2,0c-0.2-0.1-0.3-0.2-0.2-0.3c0.1-0.1,0.1-0.2,0.2-0.2
		C144.4,534.6,146.1,534.6,147.8,534.6z"/>
	<path class="st18" d="M153.6,535c0-0.2,0-0.3,0-0.5c1.6,0,3.1,0,4.7,0c0.3,0.1,0.3,0.3,0,0.5C156.7,535,155.2,535,153.6,535z"/>
	<path class="st12" d="M158.3,535c0-0.2,0-0.3,0-0.5c1.6,0,3.1,0,4.7,0c0.3,0.2,0.3,0.3,0,0.5C161.5,535,159.9,535,158.3,535z"/>
	<path class="st19" d="M144.7,0c-1.5,0.9-3.1,0.4-4.7,0.4c-0.2-0.1-0.2-0.2-0.2-0.3C139.9,0,140,0,140,0C141.6,0,143.2,0,144.7,0z"
		/>
	<path class="st20" d="M372,0.5c0-0.2,0-0.3,0-0.5c1.6,0,3.1,0,4.7,0c0,0.2,0,0.3,0,0.5C375.2,0.5,373.6,0.5,372,0.5z"/>
	<path class="st20" d="M163,0c0,0.2,0,0.3,0,0.5c-1.6,0-3.1,0-4.7,0c0-0.2,0-0.3,0-0.5C159.9,0,161.5,0,163,0z"/>
	<path class="st21" d="M163,535c0-0.2,0-0.3,0-0.5c1.6,0.2,3.2-0.5,4.7,0.5C166.2,535,164.6,535,163,535z"/>
	<path class="st22" d="M367.3,535c1.5-1,3.1-0.3,4.7-0.5c0.3,0.2,0.3,0.3,0,0.5C370.4,535,368.9,535,367.3,535z"/>
	<path class="st23" d="M372,535c0-0.2,0-0.3,0-0.5c1.6,0,3.1,0,4.7,0c0,0.2,0,0.3,0,0.5C375.2,535,373.6,535,372,535z"/>
	<path class="st24" d="M385.1,0.5c0-0.2,0-0.3,0-0.5c1.4,0,2.8,0,4.2,0C388,1.1,386.5,0.3,385.1,0.5z"/>
	<path class="st25" d="M535,396.6c-1.1-1.3-0.3-2.8-0.4-4.2c0.1-0.3,0.3-0.3,0.4,0C535,393.8,535,395.2,535,396.6z"/>
	<path class="st26" d="M0.4,393.5c-0.2,1.4,0.7,2.9-0.4,4.2c0-1.4,0-2.8,0-4.2C0.2,393.1,0.3,393.2,0.4,393.5z"/>
	<path class="st27" d="M0,379.3c0.2,0,0.3,0,0.5,0c0,1.4,0,2.8,0,4.2c-0.2,0.3-0.3,0.2-0.5,0C0,382.1,0,380.7,0,379.3z"/>
	<path class="st24" d="M150,0c0,0.2,0,0.3,0,0.5c-1.4-0.2-2.9,0.6-4.1-0.5C147.2,0,148.6,0,150,0z"/>
	<path class="st28" d="M535,151.5c-0.2,0-0.3,0-0.5,0c0-1.4,0-2.8,0-4.2c0.2-0.2,0.3-0.2,0.5,0C535,148.7,535,150.1,535,151.5z"/>
	<path class="st27" d="M0.5,155.7c-0.2,0-0.3,0-0.5,0c0-1.4,0-2.8,0-4.2c0.1-0.3,0.3-0.3,0.4,0C0.5,152.9,0.5,154.3,0.5,155.7z"/>
	<path class="st29" d="M394,0.4c-1.2,0-2.6,0.5-3.7-0.4c1.2,0,2.4,0,3.7,0c0.2,0.1,0.3,0.2,0.2,0.3C394.1,0.4,394,0.4,394,0.4z"/>
	<path class="st30" d="M385.1,535c0-0.2,0-0.3,0-0.5c1.2,0,2.4,0,3.7,0c0.2,0.1,0.2,0.2,0.2,0.3c-0.1,0.1-0.1,0.1-0.2,0.1
		C387.5,535,386.3,535,385.1,535z"/>
	<path class="st31" d="M388.7,535c0-0.1,0-0.3,0-0.4c0.9-0.1,1.7-0.1,2.6-0.2c0.4,0.1,0.7,0.1,1.1,0.2c0.2,0.1,0.2,0.2,0.2,0.3
		c-0.1,0.1-0.1,0.1-0.2,0.1C391.2,535,390,535,388.7,535z"/>
	<path class="st32" d="M0.4,387.2c0,1.2,0,2.4,0,3.6c-0.2,0.2-0.3,0.3-0.4,0c0-1.2,0-2.4,0-3.7C0.2,386.8,0.3,386.8,0.4,387.2z"/>
	<path class="st33" d="M534.6,385.6c0.2,0,0.3,0,0.4,0c0,1.2,0,2.4,0,3.7c-0.1,0.3-0.3,0.3-0.4,0
		C534.6,388.1,534.6,386.9,534.6,385.6z"/>
	<path class="st34" d="M0.4,387.2c-0.1,0-0.3,0-0.4,0c0-1.2,0-2.4,0-3.7c0.2,0,0.3,0,0.5,0C0.4,384.8,0.4,386,0.4,387.2z"/>
	<path class="st35" d="M534.6,144.2c0.1-1.2-0.7-2.5,0.4-3.6c0,1.2,0,2.4,0,3.7C534.9,144.5,534.7,144.5,534.6,144.2z"/>
	<path class="st34" d="M0.4,151.5c-0.1,0-0.3,0-0.4,0c0-1.2,0-2.4,0-3.7c0.1-0.3,0.3-0.3,0.4,0C0.4,149.1,0.4,150.3,0.4,151.5z"/>
	<path class="st32" d="M0.4,147.8c-0.1,0-0.3,0-0.4,0c0-1.2,0-2.4,0-3.7c0.1-0.3,0.3-0.3,0.4,0C0.4,145.4,0.4,146.6,0.4,147.8z"/>
	<path class="st36" d="M136.9,535c0.9-1.1,2.1-0.3,3.1-0.4c0.2,0.1,0.3,0.2,0.2,0.3c-0.1,0.1-0.1,0.2-0.2,0.2
		C139,535,137.9,535,136.9,535z"/>
	<path class="st36" d="M140,0c0,0.1,0,0.3,0,0.4c-1-0.2-2.2,0.7-3.1-0.4C137.9,0,139,0,140,0z"/>
	<path class="st37" d="M534.6,144.2c0.1,0,0.3,0,0.4,0c0,1,0,2.1,0,3.1c-0.2,0-0.3,0-0.5,0C534.6,146.3,534.6,145.2,534.6,144.2z"/>
	<path class="st38" d="M534.6,389.3c0.1,0,0.3,0,0.4,0c0,1,0,2.1,0,3.1l-0.2,0l-0.2,0c-0.1-0.5-0.1-1.1-0.2-1.6
		C534.5,390.3,534.5,389.8,534.6,389.3z"/>
	<path class="st39" d="M394,0.4c0-0.1,0-0.3,0-0.4c1,0,2.1,0,3.1,0c0.2,0.1,0.3,0.2,0.2,0.3c-0.1,0.1-0.1,0.2-0.2,0.2
		C396.1,0.4,395,0.4,394,0.4z"/>
	<path class="st40" d="M0.4,144.2c-0.1,0-0.3,0-0.4,0c0-0.9,0-1.7,0-2.6c0.1,0,0.3,0,0.4,0C0.4,142.4,0.4,143.3,0.4,144.2z"/>
	<path class="st41" d="M140,535c0-0.1,0-0.3,0-0.4c0.9,0,1.7,0,2.6,0c0,0.1,0,0.3,0,0.5C141.8,535,140.9,535,140,535z"/>
	<path class="st40" d="M0,390.8c0.1,0,0.3,0,0.4,0c0,0.9,0,1.7,0,2.6c-0.1,0-0.3,0-0.4,0C0,392.6,0,391.7,0,390.8z"/>
	<path class="st42" d="M397.1,0.4c0-0.1,0-0.3,0-0.4c0.9,0,1.7,0,2.6,0c0,0.1,0,0.3,0,0.4C398.9,0.4,398,0.4,397.1,0.4z"/>
	<path class="st43" d="M392.4,535c0-0.1,0-0.3,0-0.4c0.9,0,1.7,0,2.6,0c0.2,0.1,0.2,0.2,0.2,0.3c-0.1,0.1-0.1,0.1-0.2,0.1
		C394.1,535,393.3,535,392.4,535z"/>
	<path class="st44" d="M395,535c0-0.1,0-0.3,0-0.4c0.9,0.1,1.9-0.6,2.6,0.4C396.7,535,395.9,535,395,535z"/>
	<path class="st45" d="M155.2,389.2c-6.7-5.8-13.4-11.6-19.4-18.2c-15.1-16.6-25.6-35.7-31.7-57.2c-8.2-28.5-10-57.3-3.2-86.4
		c3.7-15.7,9.4-30.5,16.9-44.8c6.4-12.1,13.9-23.3,23.2-33.4c10.7-11.7,23-21.4,36.9-29.2c13.3-7.5,27.4-13.2,42.2-17.1
		c18.8-5,37.9-5.9,57.3-4.9c35.6,1.7,71.2,3.5,106.8,1.5c3.6-0.2,3.9,0.2,4.1,4c0.7,17.1,1.5,34.1,2.2,51.2c0,0.6,0.2,1.2,0.3,1.8
		c0.5,0.3,0.8,0.7,0.9,1.2c0.4,4.1,0.4,8.1,0,12.2c-0.1,0.9-0.6,1.7-1.6,1.9c-1.1,0.2-1.8-0.3-2.4-1.1c-0.6-0.9-0.9-1.9-1.2-2.9
		c-2.6-8.3-5.1-16.6-7.2-25c-0.3-1-0.6-2-1-2.9c-0.9-4.1-2.3-8-3.4-12.1c-0.7-2.5-2.2-4-4.8-4.6c-12.6-2.9-25.2-5.2-38-6.7
		c-10-1.2-20.1-2-30.2-2.4c-7.2-0.3-14.4-0.1-21.7,0.3c-9,0.5-17.9,1.4-26.7,3.2c-22.2,4.7-42.4,13.5-59.8,28.3
		c-13.9,11.9-24.3,26.3-31.8,42.9c-7.7,17.1-12.2,34.9-13.6,53.6c-1.5,20.6,0.2,40.9,6.5,60.6c4.6,14.4,11.3,27.7,20.3,39.8
		c0.5,0.6,1,1.2,1.4,1.9c0.5,1.2,1.4,2.1,2.3,3.1c17.1,21.4,38,37.5,64,46.9c8.3,2.9,16.8,5.1,25.5,6.6c10.6,1.9,21.3,2.6,32,2.1
		c10.1-0.5,20-2.2,30-3.7c4.3-0.7,8.6-1.4,12.9-1.9c2.3-0.3,3.5-1.4,4-3.7c3.5-16.2,4.1-32.6,3.6-49.1c-0.3-10.5-2.3-20.9-3.7-31.3
		c-0.3-2-1.3-3.1-3.3-3.4c-2.6-0.4-5.2-0.7-7.8-1c-0.3-0.1-0.6-0.2-0.9-0.3c-11.5-1.5-23-3.4-34.6-4.5c-2.5-0.3-5-0.7-7.5-1.1
		c-1.4-0.2-2.8-0.9-2.6-2.7c0.2-1.7,1.6-1.9,2.9-1.9c0.7,0,1.4,0,2.1,0c45.2,0,90.3,0,135.5,0c1.9,0,3.9-0.1,5.4,1.3
		c1.1,1.5,0,2.3-1,3.1c-8,2.1-16.1,3.7-24.1,5.8c-0.3,0.1-0.5,0.2-0.8,0.2c-0.9,0-1.8,0.3-2.6,0.7c-1.3,0.6-2.9,0.6-4.2,1.3
		c-1.4,0.6-1.7,1.8-1.9,3.1c-1,8.1-2.2,16.2-2.8,24.3c-1.2,1.9-1.2,4.2-1.2,6.3c-0.1,3.8-0.6,7.6-0.7,11.4
		c-0.5,12.1-1.2,24.1-1,36.2c0,1.8-0.5,3.5-2.4,4.2l0.1,0c-1.8,1.1-3.9,1.4-5.8,2.2l0,0c-0.8,0.6-1.8,0.7-2.7,1.1l0.1,0
		c-4,2.7-8.7,3.7-13,5.7c-0.2,0.1-0.5,0.2-0.7,0.3c-5.3,1.5-10.5,3.4-15.6,5.5c-0.2,0.1-0.5,0.2-0.7,0.3c-5.2,1.3-10.2,2.9-15.3,4.5
		c-0.2,0.1-0.5,0.2-0.7,0.2c-0.9,0-1.8,0.3-2.6,0.6c-2.1,0.8-4.2,1.4-6.4,1.5c-6.3,1.2-12.7,2.4-19.1,3.4c-3.9,0.6-7.9,0.9-11.7,1.9
		c-8.6,0.6-17.2,2-25.9,1.8c-1,0-2.1,0.1-3.1-0.2c-4.6,0.2-9.2,0.3-13.8,0c-3.8-0.8-7.7-1.1-11.6-1.1c-10.7-0.9-21.2-3.1-31.7-5.8
		c-0.8-0.2-1.5-0.3-2.3-0.4c-0.7,0-1.4-0.2-2.1-0.5c-3.8-1.9-8-2.6-11.9-4.3c-2-0.8-4-1.7-6.1-2.2c-10.9-4.8-21.4-10.3-31.1-17.4
		C158,392.3,156.2,391.1,155.2,389.2z"/>
	<path class="st46" d="M434.7,302.3c0.5-0.6,1-1.2,1.6-1.7c-1.1-1.7-2.8-1.5-4.5-1.5c-22.1,0-44.2,0-66.2,0c-4.3,0-8.5,0-12.8,0
		c-2.1,0-1.3-1.1-0.7-2c1.7-2.7,4.1-4.8,6.2-7c4.6-4.8,9.5-9.4,14.3-14.1c6.2-6.1,11.9-12.7,18.2-18.5c4-3.7,7.3-8,11.6-11.6
		c3-2.5,5.4-5.9,8.4-8.5c4.9-4.3,8.9-9.5,13.7-13.9c6.2-5.6,12-11.8,17.7-17.9c2.4-2.5,5-5.1,7.8-7.2c2.3-1.7,4-4.1,5.9-6.2
		c3.5-3.7,7.5-6.9,11-10.7c0.8-0.9,1.8-1.1,2.8-0.3c0.5,0.4,1,0.7,1.4,1.2c13.8,13.8,27.6,27.5,41.3,41.3c0.4,0.4,0.8,0.9,1.2,1.4
		c-5.6,5.8-11.7,11-17.1,17c-3.2,3.6-6.9,6.8-10.2,10.3c-4.9,5.4-10.5,10-15.4,15.4c-2.4,2.6-4.7,5.6-7.7,7.6
		c-1.9,1.3-3.3,3.1-4.7,4.8c-2.6,3.3-6.2,5.5-8.8,8.8c-2.2,2.8-5,5.1-7.8,7.2c-1.2,0.9-1.8,2.3-2.8,3.3c-6,6.3-12.5,12-18.5,18.3
		c-3.6,3.9-7.6,7.6-11.4,11.4c-3.1,3.1-6.6,5.8-9.2,9.5c-0.4,0.6-1,1.2-1.9,1.3c-0.6-0.4-0.3-1-0.3-1.5c0.7-3.2,1.1-6.6,1.3-9.8
		c0.5-5.2,1.6-10.4,1.8-15.7c0.1-1.4,0.9-2.6,2.2-3.3c1.1-1.4,2.9,0,4.1-1.1c0.8-0.6,1.9,0.2,2.7-0.6l-0.1,0c6.1-1,12.1-2.6,18-4
		C430.3,303.6,432.7,303.8,434.7,302.3z"/>
	<path class="st5" d="M330.2,417.4c2-0.5,4.1-1.1,6.1-1.6c0.8-0.5,2,0.3,2.8-0.6l-0.1,0c5.5-1.3,10.9-2.9,16.2-4.8l-0.1,0
		c5.5-1.8,10.9-3.6,16.3-5.8l-0.1,0c3.1-0.9,6.1-2.2,9.2-3.3c0.8-0.3,1.5-0.9,2.4-0.3c-0.4,2.7-3.3,3.1-4.8,4.8
		c-5.3,6.3-11.5,11.9-17.2,18c-3.1,3.4-6.3,6.8-9.8,9.8c-5.8,4.9-10.6,10.8-16.3,15.9c-4.9,4.4-9.2,9.3-13.8,14
		c-3.8,3.8-7.4,7.8-11.6,11.2c-2.1,1.7-3.9,4-5.8,6c-5.2,5.3-10.3,10.6-15.5,15.9c-4.1,4.1-8.3,8-12.5,12c-0.4,0.3-0.9,0.4-1.4,0.6
		c-7.5-7.1-14.8-14.4-21.9-21.9c4.3-4,7.8-8.7,12.2-12.7c4.2-3.8,7.8-8.1,11.9-12c4.4-4.1,8.4-8.5,12.7-12.6
		c9.9-9.4,19.4-19.3,29.1-29c0.6-0.6,1.4-1.1,2.1-1.5C323.7,418.9,327,418.4,330.2,417.4z"/>
	<path class="st47" d="M378.9,139.4c2.9,9.6,5.8,19.2,8.7,28.9c0.1,0.3,0.1,0.7,0.2,1c0.4,1,1,2.2,2,2.1c1.2-0.1,1.3-1.5,1.3-2.5
		c-0.1-4.2-0.2-8.3-0.3-12.5c0.4-8.5-0.4-17-0.8-25.5c-0.3-7.3-0.5-14.6-0.6-21.9c0-2.7-1.1-5.4-0.4-8.2c0.9,0,1.2,0.7,1.7,1.1
		c16.1,16,32.1,32.1,48.1,48.1c0.4,0.4,0.8,0.9,1.2,1.4c0.4,1.4-0.6,2.1-1.4,2.8c-5.1,4.5-9.6,9.6-14.4,14.3
		c-2.8,2.8-5.9,5.2-8.3,8.5c-1.7,2.4-4.1,4.5-6.4,6.4c-4.4,3.8-8.3,8.2-12.3,12.4c-0.9,0.9-1.7,2-3.2,1.9c-1.2-0.2-1.9-1.2-2.6-2.1
		c-5.5-6.4-12.3-10.7-20.6-12.4c-3-1-6.1-1.4-9.2-1.5c-0.3,0-0.6-0.1-0.8-0.2c-2.1-0.6-4.3-0.2-6.4-0.3c-1.4,0-2.9,0-4.3,0
		c-0.6,0-1.1,0-1.7-0.1c-0.7-0.2-1.3-0.5-1.8-1c-0.6-1.4,0.1-2.5,1-3.2c5.1-4.3,9.1-9.5,13.8-14.1c5.5-5.3,10.9-10.7,16.3-16.1
		c1.2-1.2,1.9-2.2,1.1-4C378.1,141.9,377.6,140.5,378.9,139.4z"/>
	<path class="st48" d="M393.9,197.5c2.7-1.3,4.3-3.8,6.1-5.9c2.6-3,5.8-5.4,8.4-8.4c2.8-3.2,6.7-5.4,8.6-9.4
		c0.6-1.3,2.2-1.4,3.1-2.3c3.2-3.3,6.5-6.6,9.8-9.9c3.3-3.4,6.7-6.8,10-10.1c6,6,12.1,11.9,18.1,17.9c3.1,3.1,6,6.2,9.1,9.3
		c0,1.2-0.9,1.8-1.6,2.6c-5.6,5.3-10.7,11.2-16.4,16.4c-6.6,6-12.5,12.7-18.9,19c-5,4.8-10,9.6-14.7,14.7
		c-5.6,6-11.7,11.6-17.5,17.4c-0.8,0.8-1.8,1.8-3.2,0.9c-0.2-0.4-0.3-0.8-0.3-1.2c0.1-1.2,0.8-2.3,1.3-3.4c7.1-14.9,7-29.6-1-44.2
		C394.2,199.9,393.4,198.9,393.9,197.5z"/>
	<path class="st49" d="M320.3,420.1c-3.9,4.4-8.2,8.4-12.3,12.6c-4.1,4.3-8.5,8.3-12.4,12.8c-1.6,1.8-3.9,2.9-5.5,4.9
		c-2.8,3.3-6.1,6.2-9.2,9.3c-5.1,5.1-10.3,10.1-15.4,15.3c-2.8,2.8-5.9,5.3-8.2,8.6c-1.3,1.8-2.9,3.2-5,3.9
		c-7.9-7.4-15.5-15.1-23-23c4.8-4.8,9.5-9.6,14.4-14.3c5.8-5.5,11.1-11.5,17.1-16.8c3.2-2.9,5.8-6.4,9.3-9.1c9.7,0.1,19.3-1,29-1.7
		c6.3-0.7,12.7-1.6,18.9-2.8C318.8,419.7,319.6,419.6,320.3,420.1z"/>
	<path class="st46" d="M270.1,424.3c-1.5,3.3-4.4,5.5-6.8,8c-4.3,4.3-8.8,8.4-12.9,12.9c-2.4,2.6-5.1,4.8-7.6,7.3
		c-3.3,3.2-6.5,6.5-9.8,9.7c-1,1-1.9,2.3-3.6,2.3c-5.1-5-10.2-10-15.2-15c-3.3-3.3-6.6-6.7-9.8-10.1c0.2-0.4,0.5-0.7,0.8-1
		c6.2-4.6,10.6-11.1,16.5-16c0.3-0.2,0.5-0.5,0.6-1.1c-2.9-0.8-6-1.3-8.9-2.3c-1.1-0.4-2.7-0.3-2.7-2.1c7.4,1.7,14.8,3.5,22.4,4.6
		c3.9,0.6,7.7,1.1,11.6,1.7c3.9,1.1,7.9,0.6,11.8,1.1C260.9,424.3,265.5,424.3,270.1,424.3z"/>
	<path class="st48" d="M210.6,416.9c3.4,1.9,7.2,2.3,10.9,3.2c0.8,0.2,2,0,2.3,0.9c0.4,1.1-0.8,1.3-1.4,1.9
		c-3.8,3.9-8.1,7.3-11.3,11.8c-1.6,2.2-4.1,3.8-6.7,4.8c-0.7-0.6-1.3-1.1-2-1.7c-15.5-15.4-30.9-30.9-46.3-46.4
		c-0.5-0.5-2.2-0.8-0.8-2.1c4.2,2.9,8.3,5.9,12.6,8.7c6.1,4,12.6,7.3,19.2,10.3c1.3,0.6,2.5,1.2,3.7,1.9c5.9,2.6,11.9,4.7,18.2,6.4
		C209.4,417,210,416.7,210.6,416.9z"/>
	<path class="st46" d="M395,249.8c2.7-1.2,4.4-3.7,6.3-5.7c3.7-4,7.9-7.5,11.5-11.6c3.9-4.5,8.3-8.6,12.7-12.6
		c6-5.5,11.7-11.4,17.3-17.2c4.7-4.9,9.8-9.4,14.4-14.4c3-3.3,6.2-6.7,9.9-9.4c1.1,0.7,1.9,1.5,2.6,2.6c-2-0.5-2.3,1.4-3.3,2.4
		c-5,4.6-9.8,9.3-14.5,14.3c-2.4,2.6-4.8,5.4-8,7.2c-1.6,0.9-1.9,2.6-3.2,3.7c-4.9,4.3-8.9,9.5-13.8,13.7c-3.9,3.3-7.3,7.2-10.7,11
		c-2.7,2.9-6,5.1-8.5,8.2c-3.5,4.3-8.4,7.3-11.5,12.1c-1.3,2.1-3.7,3.1-5.5,4.8c-3.8,3.5-6.6,7.8-10.6,11c-3.7,3-6.8,6.6-10.1,9.9
		c-6.3,6.2-12.9,12.1-18.3,19.2c-1.8,0.6-3.7,0.1-5.6,0.3c-1.5-0.1-1-1.2-0.8-1.9c0.3-1.2,1.3-2.1,2.1-2.9
		c8.2-8,16.1-16.2,24.2-24.3c2-2,4.2-3.6,6.2-5.5c0.7-0.7,1.2-1.4,1.6-2.3c3.3-2.9,7.2-5,10.1-8.4c1.1-1.2,2.1-2.5,3.4-3.6
		C393.6,249.9,394.2,249.3,395,249.8z"/>
	<path class="st2" d="M398.3,338.5c0,0.5,0,1.1,0,1.6c-1,10.9-1.4,21.8-1.8,32.7c-0.2,5.1-0.3,10.2-0.4,15.4c0,1.5,0.1,3-0.1,4.4
		c-0.2,1.6-0.3,3.6-2.7,3.9c1.7-1.1,2-2.9,2-4.8c0.3-15.5,0.7-30.9,1.9-46.3c0.2-2.5,0.6-5,0.8-7.5
		C398.3,338,398.4,338.2,398.3,338.5z"/>
	<path class="st2" d="M383,401.3c-2.6,0.9-5.3,1.7-7.9,2.6c-1.2,0.4-2.4,1.1-3.7,0.9c4.4-2.1,9.1-3.6,13.7-5.2
		C384.4,400.2,383.7,400.7,383,401.3z"/>
	<path class="st2" d="M387.6,398.6c1.8-1.2,3.8-1.6,5.8-2.2C391.8,398,389.7,398.3,387.6,398.6z"/>
	<path class="st2" d="M385,399.7c0.8-0.6,1.7-0.9,2.7-1.1C387,399.5,386.1,399.7,385,399.7z"/>
	<path class="st50" d="M378.9,139.4c-0.2,1.3,0.1,2.5,0.6,3.6c1,2.1,0.1,3.6-1.3,4.7c-3.2,2.4-5.8,5.4-8.5,8.1
		c-3.4,3.4-7,6.8-10.3,10.5c-3.1,3.4-6.3,6.8-9.5,10.2c-1.1,1.2-2.8,2-3.4,3.8c-1,1-2.3,0.7-3.4,0.7c-11.2,0-22.3,0-33.5,0
		c-0.1,0.1-0.5-0.1-0.4,0.2c0.2,0.1,0.3,0.1,0.5,0.2c1,0.2,1.9,0.1,2.9,0.2c0.2,0,0.5,0.1,0.7,0.1c2,0.6,4.2,0.5,6.2,1.3
		c0.2,0.2,0.4,0.4,0.5,0.7c0.2,1.3,0.3,2.6,0.7,3.8c0,0.3,0,0.6,0,0.9c0.2,4.8-0.5,9.7,0.5,14.4c0.1,0.8,0.2,1.5,0,2.3
		c-0.2,1.5-1.2,2.5-2.3,3.4c-5.5,5-11,9.9-15.8,15.5c-3.4,4-7.3,7.4-10.9,11.1c-0.5,0.5-1,1-1.7,1.3c-1.5,0.7-2.3,0.4-2.9-1.4
		c-0.9-3.1-0.6-6.2-0.9-9.3c-0.3-3.6-0.6-7.3-0.7-10.9c-0.3-9.3-1.3-18.5-1-27.8c0.1-4.3,0.3-4.3,4-4.8c2.4-0.3,4.9-0.7,7.3-1.1
		c-5.7-0.2-11.4-0.3-17.2-0.2c-0.9,0-1.7,0.4-2.3,1c-0.7,0.7-1.1,1.6-1.5,2.4c-7.8,17.8-17.8,34.5-26.5,51.8c-2,4-4.3,7.8-6.4,11.7
		c-1.8,3.4-3.4,3.4-5.4,0.2c-3.6-5.6-6.4-11.6-9.6-17.4c-8.2-15.2-16.2-30.4-24.3-45.6c-1.6-3-3.6-4.1-7.1-3.8
		c-4.2,0.4-8.4,0.7-12.4,0.1c4.3-0.4,10.5,6.6,10.6,11.2c0.1,8.2,0.2,16.3-0.7,24.5c-1.1,10.7-2,21.5-3,32.2
		c-0.3,3.5-0.3,7-0.8,10.4c-0.8,4.6-1.9,5.7-6.7,6.3c5.2-0.9,10.3-0.8,14.1-0.3c-3.2-0.5-4.1-1.5-4.2-5.9
		c-0.2-9.1,0.9-18.1,1.4-27.1c0.5-7.8,1-15.6,1.8-23.4c0.3-3.1,0.2-6.3,1.6-9.2c2.2-1.3,2.8,0.7,3.5,1.9c1.9,3.3,3.6,6.7,5.4,10.1
		c1.9,3.5,3.9,7,5.7,10.6c7.3,13.1,14,26.5,21.4,39.6c0.5,0.8,0.8,1.7,1.8,2.7c1.6-3,3.2-5.8,4.7-8.6c0.8-1.6,1.4-3.3,2.8-4.6
		c1.7-1.2,2-3.3,3-4.9c0.1-0.2,0.2-0.4,0.3-0.6c0.4-0.7,0.7-1.4,0.8-2.2c0.2-0.8,0.6-1.5,1.2-2.2c1.7-1.8,2.6-4.1,3.4-6.4
		c0.1-0.5,0.4-0.9,0.7-1.2c0.5-0.5,0.9-1,1.1-1.7c0.1-0.2,0.2-0.4,0.3-0.6c1.1-1.7,2.1-3.5,2.6-5.5c0.5-1.8,1.5-3.4,2.7-4.9
		c1.1-1,1.4-2.5,2.4-3.5c1.1-0.5,0.7-1.6,0.8-2.4c0.1-0.5,0.3-0.9,0.6-1.3c1.1-0.7,1.4-1.8,1.4-3.1c0.2-0.8,0.7-1.4,1.3-1.8
		c1.9-1.6,2.2-4.2,3.5-6.2c0.5-0.8,0.7-1.8,1.1-2.6c0.3-0.5,0.8-0.8,1.4-0.7c1.2,0.9,1.4,2.2,1.4,3.4c0.6,8.9,1.9,17.8,2.6,26.8
		c0.2,3,0.1,6.1,0,9.1c-0.3,1.1-0.1,2.1,0.4,3.1c0.2,2.1,0.2,4.3,0,6.4c-4.6,3.4-7.5,8.5-12.3,11.9c-2.2,1.5-3.5,4.2-5.3,6.3
		c-1.3,1.4-2.6,2.7-4.2,3.9c-2.9,2.1-5,5.2-7.6,7.6c-6.8,6.2-13.3,12.7-19.5,19.5c-4.2,4.6-9.1,8.5-13.1,13.2
		c-1.6,1.9-3.2,4.1-5.7,5.1c-0.4,0.2-0.8,0.4-1,0.8c-2.2,4-5.9,6.5-9.1,9.5C192,332.6,186,338.8,180,345c-1.2,1.2-2.4,2.6-4,0.4
		c-7.4-8.9-12.9-19-17.5-29.5c-9.3-21.6-12.6-44.3-11.6-67.6c0.8-18.1,4.3-35.7,11-52.6c5.7-14.4,13.3-27.6,23.5-39.2
		c11.4-12.9,25.2-22.7,40.8-29.8c20.2-9.3,41.6-13.1,63.6-13.6c24.2-0.5,48.2,1.7,71.9,6.5c4.4,0.9,8.7,1.8,13,2.7
		c2.6,0.5,4.1,2,4.7,4.6C376.5,131,378.3,135.1,378.9,139.4z"/>
	<path class="st47" d="M275.9,181.3c0.1-0.9,0.7-1.1,1.5-1.1c6.6,0,13.2,0,19.8,0c0.7,0,1.5-0.1,1.5,1c-0.1,0.9-0.8,1.1-1.5,1.1
		c-3.2-0.1-6.4,0.8-9.5,1.1c-1.4,0.1-1.8,0.7-1.8,1.9c0,8.3,0,16.6,0.9,24.9c0.5,4,0.4,8.1,0.6,12.2c0.2,4.1,0.5,8.3,1,12.4
		c0.2,2,1,1.8,2,0.8c1.9-1.8,3.7-3.7,5.8-5.4c5-4.2,8.2-10,13.5-14.1c2-1.6,4.4-3.4,5.8-6.1c0.7-1.4,2.9-1.6,4-3.1
		c0.4-0.6,0.9-1,1-1.8c1.3,0.4,1.2,1.5,1.2,2.6c-0.1,13.6,0.3,27.3-0.3,40.9c-0.2,4.2-0.7,8.5-1,12.7c-0.2,3.1-1.9,4.3-5.5,4.6
		c-1.8-0.3-3.5,0-5.5,0.5c1,0.5,1.8,0.3,2.5,0.3c16.6,0,33.2,0,49.8,0c1.8,0,3.5-0.2,5.1-0.9c0.9-0.3,1.9-0.4,2.9-0.6
		c1.4,0.1,2.9,0.4,4-1c2.1-0.8,3.9-2.5,6.4-2c-0.3,3-3,4.2-4.8,5.8c-3.8,3.2-7.1,6.8-10.5,10.3c-5.5,5.5-11,11.1-16.6,16.6
		c-1.1,1.1-2,2.3-2.5,3.9c-0.9,0.5-1.9,0.2-2.8,0.3c-16.3,0-32.5,0-48.8,0c-0.6,0-1.2,0-1.8,0c-0.9,0-1.5,0.4-1.7,1.3
		c-0.2,0.9,0.4,1.4,1.1,1.9c1.3,0.8,2.9,0.6,4.3,0.8c7.2,0.9,14.4,1.8,21.6,2.8c4.7,0.7,9.4,1.1,14.1,2c1.4,0.3,2.8-0.2,4.1,0.3l0,0
		c0.4,1.4-0.6,2.1-1.4,2.8c-7.4,7.3-14.7,14.8-21.9,22.3c-7.7,7.9-15.9,15.3-23.4,23.3c-5.7,6-11.5,12-17.6,17.7
		c-7.1,6.5-13.9,13.4-20.5,20.4c-1.8,1.9-3.3,2.5-5.6,1.4c-1-0.5-2.1-0.7-3.2-1.1c-7.2-2.2-13.9-5.5-20.4-9.2
		c-16.5-9.4-30.6-21.7-42.5-36.5c-0.3-0.4-0.6-0.8-0.9-1.3c0.7-2.2,2.5-3.5,3.9-5.1c3.1-3.6,6.8-6.6,10-10.2
		c3.5-3.9,7.2-7.7,11.4-10.8c0.3-0.2,0.7-0.3,0.8-0.6c1.7-3.6,5.1-5.6,7.8-8.2c3.2-3.2,6.2-6.5,9.5-9.5c6.1-5.6,11.6-11.7,17.5-17.4
		c3.8-3.7,7.8-7.4,11.4-11.3c4.1-4.5,9.4-8,12.5-13.4c0.4-0.8,1.1-1.3,1.9-1.7c2-1.2,3.8-2.7,5-4.8c1.4-2.4,4.4-3.1,5.6-5.7
		c0-2.4,0-4.9,0-7.3c-0.4-0.6-1-1.2-0.5-2.1c0.2-10.7-1.1-21.2-2.4-31.7c-0.3-2.7,0.5-5.6-1.4-8c1.4-0.7,2.3-0.3,2.3,1.4
		c0.1,2.3,0.6,4.6,0.7,6.9c0.1,2.5,0.4,5,0.9,7.4c0.2,4,0.5,8.1,1.1,12.1c0.2,3-0.4,6,0.5,8.9c0,6.4,0.4,12.8,0.4,19.2
		c0,1.2,0,2.4,0.2,3.6c0.5,4.1-0.8,5.8-4.8,6.5c-1,0.2-2.1,0-3.1,0.1c8.6-0.1,17.2,0,25.7-0.1c-4.1-0.8-4.8-1.5-5.6-5.4
		c-1.5-6.9-1.9-13.9-2.4-21c-0.7-9.5-1.3-19.1-2-28.6c-0.6-8.5-0.7-17-0.6-25.6c0-2.8,0.8-3.5,3.5-3.9c1.6-0.3,3.1-0.1,4.7-0.4
		c0.5-0.1,1-0.1,1.2-0.1c-1.4,0.2-3.1,0.3-4.8,0.3C284.5,181.8,280.2,182.3,275.9,181.3z"/>
	<path class="st46" d="M241.8,395.1c0.3,0,0.8-0.1,1,0c3.8,2.3,6,0.3,8.6-2.4c5.3-5.5,10.9-10.7,16.2-16.1
		c4.1-4.1,8.6-7.8,12.3-12.4c3.4-4.3,8-7.7,11.7-11.8c4.4-4.9,9.4-9.3,14.1-13.8c5.9-5.7,11.7-11.5,17.3-17.5
		c4.1-4.4,8.4-8.5,12.5-12.9c3.3,0,6.5,0.8,9.8,1.2c1.4,0.2,2.1,1.1,2.3,2.4c4.5,26.6,6.2,53.2,0.8,79.9c-1.4,6.9-0.1,6.2-7.7,7.3
		c-12.2,1.8-24.4,4-36.7,5c-18,1.4-35.6-0.6-52.9-5.7C247.9,397.3,244.7,396.7,241.8,395.1z"/>
	<path class="st34" d="M151.4,374.7c-5.5-4.7-10.3-10.1-14.7-15.8c-8.9-11.3-15.9-23.7-20.9-37.1c-6.2-16.6-10.1-33.6-10.3-51.4
		c-0.2-25.2,3.8-49.6,13.6-72.8c7.1-17,16.9-32.3,29.5-45.9c9.3-10,19.7-18.6,31.4-25.7c16.2-9.8,33.6-16.6,52.2-20.4
		c17.5-3.5,35.2-4.1,53-2.9c2.3,0.2,4.5,0.2,6.8,0.4c0.9,0.1,2.2,0.5,2.2,1.5c0,1.1-1.4,1.1-2.3,1.2c-4.9,0.3-9.7,0.6-14.6,0.6
		c-22,0.2-43.3,3.8-63.8,11.9c-23.3,9.1-43.5,22.6-59.2,42.4c-15.2,19.2-24.6,41.1-29,65.1c-4.5,24.3-4.5,48.6,1.3,72.8
		c4.6,19.1,12.7,36.6,23.9,52.6c2.3,3.3,5,6.5,7.5,9.7c0.5,1.1,1.5,1.9,2.3,2.7c1,0.9,1.2,1.9,0.3,2.9c-2.5,2.8-5.3,5.3-7.9,8
		C152.3,374.9,151.8,374.9,151.4,374.7z"/>
	<path class="st51" d="M357.4,309.3c0.4-1.3,1.5-1.6,2.7-1.6c3.6,0,7.1,0.1,10.7,0c1.4,0,1.9,0.3,1.9,1.9c0,25.2,0,50.4,0,75.7
		c0,2.2-0.7,3.9-2.9,4.7c-3.9,1.4-7.8,2.8-11.8,4.2c-0.2,0.1-0.4-0.2-0.6-0.3c0.3-0.9,0.1-1.9,0.1-2.8c0-20.8,0.1-41.5-0.1-62.3
		C357.5,322.3,357.4,315.8,357.4,309.3z"/>
	<path class="st28" d="M195.4,391.3c6.5,3,12.7,6.4,19.4,9c14,5.5,28.4,9.3,43.3,11.5c12.8,1.8,25.6,3,38.5,2.7c0.1,0,0.2,0,0.3,0
		c1.2,0,2.8,0.2,2.9,1.2c0.1,1.4-1.6,1.4-2.6,1.5c-12.3,1.2-24.6,2.4-37,1.3c-14.2-1.3-28.4-2.8-42.2-6.7
		c-9.4-2.6-18.6-5.9-27.2-10.4c-0.1-1.6,1.1-2.4,2.1-3.4c0.7-0.7,1.6-1.3,2.4-2c1.1-1,1.9-2.1,0.5-3.5
		C195.3,392.1,195.2,391.7,195.4,391.3z"/>
	<path class="st52" d="M195.4,391.3c0,0.1,0.1,0.2,0.1,0.2c0.4,1.1,2.5,0.9,2.1,2.2c-0.3,1.4-1.4,2.6-2.6,3.4
		c-1.8,1.1-3.1,2.7-4.5,4.2c-9.6-4.4-18.5-9.9-26.9-16.2c-4.3-3.2-8.6-6.5-12.3-10.4c2.7-2.7,5.4-5.4,8.1-8.1
		c1.3-1.2,1.2-2.2-0.2-3.3c-0.7-0.6-1.5-1.2-1.5-2.3c5,5.2,10,10.4,15.6,15c6.1,5,12.4,9.5,19.2,13.4
		C193.6,390,194.5,390.6,195.4,391.3z"/>
	<path class="st50" d="M275.3,249.2c0,1.1,0.2,2.4-1.1,3c-2.2,1-3.7,2.8-4.9,4.8c-0.7,1.1-1.7,2.1-3.1,2.7c-1.5,0.7-2.6,1.9-3.6,3.3
		c-2.6,3.7-5.7,6.9-9.5,9.5c-1.6,1.1-2.5,3.1-3.9,4.5c-2.4,2.5-5.2,4.3-7.3,7.2c-2.3,3.2-5.5,5.8-8.4,8.5c-2.8,2.7-5.6,5.5-8.2,8.5
		c-2.3,2.6-5,4.8-7.6,6.9c-1.9,1.5-3.1,3.5-4.7,5.1c-2.1,2-4.6,3.6-6.4,5.9c-4,5.1-9.7,8.8-13.7,13.7c-3.7,4.6-8.6,7.9-12.1,12.6
		c-0.8,1-1.7,2-2.9,2.6c-0.9-0.7-1.6-1.5-2-2.7c1.1,0.9,1.9,0.7,2.8-0.4c3.8-4.6,8.3-8.6,12.3-12.9c3.5-3.7,7.1-7.5,11.3-10.5
		c1-0.7,1.6-1.5,2.2-2.5c1-1.7,2.1-3.3,4.1-4.2c1.9-0.8,3.1-2.8,4.4-4.1c5.6-6.3,11.9-11.9,17.7-18.1c4.4-4.7,9.1-9.2,13.7-13.7
		c2.4-2.3,5.3-4.2,7.3-7.2c1.6-2.5,4.7-3.9,6.8-6.3c4.4-5.1,9.2-9.8,13.9-14.6C273.3,250,274,249.1,275.3,249.2z"/>
	<path class="st5" d="M335.5,308.2c-5.5,0.2-10.8-1-16.3-1.6c-7.6-0.8-15.1-2-22.6-3c-1.3-0.2-2.6-0.3-3.9-0.5
		c-1.4-0.2-2.8-0.6-2.8-2.5c0.1-2,1.6-1.7,2.9-1.7c17.5,0,35,0,52.5,0c2.1,0,4.2,0,6.3,0c27.1,0,54.1,0,81.2,0
		c1.3,0,3.2-0.7,3.4,1.7c-1.6-0.9-3.2-1.1-5-1.1c-45.8,0-91.6,0-137.3,0c-0.4,0-0.9,0-1.3,0c-0.9,0-1.9-0.1-1.9,1.2
		c0,1.1,0.8,1.5,1.7,1.6c3,0.4,6,0.8,9.1,1.2C312.8,305.1,324.2,306.6,335.5,308.2z"/>
	<path class="st53" d="M357.4,309.3c0.7,0.8,0.5,1.8,0.5,2.8c0,26.4,0,52.7,0,79.1c0,0.9,0.2,1.9-0.4,2.8c-0.5-1.3-0.3-2.6-0.3-3.9
		c-0.1-25.7-0.1-51.4-0.1-77.1C357.1,311.7,356.9,310.5,357.4,309.3z"/>
	<path class="st5" d="M398.3,338.5c-0.1-0.2-0.1-0.4-0.2-0.6c0.3-7.2,1.5-14.3,2.4-21.5c0.2-1.5,0.3-2.9,0.7-4.4
		c0.3-1.1,0.9-2.1,2.3-2.2c-1.7,1.8-2.1,4-2.1,6.4c-0.1,2.5-0.7,5-0.9,7.4c-0.3,4.7-1.8,9.3-1.5,14
		C398.9,338,398.5,338.3,398.3,338.5z"/>
	<path class="st2" d="M320.3,420.1c-5.5,0.8-11.1,1.5-16.6,2.3c-1.6,0.2-3.1,0.2-4.6,0.2c6.2-1,12.4-2,18.7-3
		c4.2-0.7,8.3-1.5,12.5-2.2c-2.4,1.4-5.1,1.5-7.7,2.1C321.8,419.7,321,419.7,320.3,420.1z"/>
	<path class="st5" d="M434.7,302.3c-0.6,1.4-2,1.2-3.1,1.5c-6.1,1.5-12.2,2.9-18.4,4.2c-1,0.2-2.1,0.1-3.1,0.2
		C418.3,306.2,426.5,304.3,434.7,302.3z"/>
	<path class="st46" d="M208.9,416.4c-6.4-1.2-12.4-3.3-18.2-6.4C196.8,412.2,202.9,414.3,208.9,416.4z"/>
	<path class="st2" d="M371.4,404.8c-0.1,0.1-0.2,0.4-0.3,0.4c-5.3,1.9-10.4,4.4-16,5.4C360.5,408.3,365.9,406.5,371.4,404.8z"/>
	<path class="st2" d="M355.2,410.5c-5.2,2.3-10.6,4-16.2,4.8C344.4,413.6,349.7,411.7,355.2,410.5z"/>
	<path class="st49" d="M256.3,424.2c-3.9-0.3-8,0.9-11.8-1.1C248.5,423.3,252.4,423.5,256.3,424.2z"/>
	<path class="st5" d="M410.1,308.2c-0.7,0.9-1.8,0.5-2.7,0.6C408.3,308.4,409.2,308.1,410.1,308.2z"/>
	<path class="st2" d="M339.1,415.3c-0.8,1-1.8,0.5-2.8,0.6C337.2,415.4,338.1,415.1,339.1,415.3z"/>
	<path class="st45" d="M379.9,262.3c-2.1,0.9-4.2,1.8-6.3,2.6c-1.1,1-2.5,0.8-3.7,1c-0.7,0.7-1.7,0.4-2.5,0.5
		c-2.3,0.5-4.6,0.8-6.9,0.8c-16.7,0-33.4,0-50.1,0c-0.5,0-1,0-1.6,0c-0.5,0-1.4,0.3-1.4-0.6c0-0.7,0.7-0.9,1.4-0.9
		c2.1,0,4.1-0.6,6.2-0.7c3.9-0.2,4.2-0.6,4.5-4.3c1.6-17.2,2-34.5,1.3-51.8c0-1.2-0.2-2.4-0.3-3.6c0.2-0.6,0.2-1.3,0-1.9
		c-0.7-3.2-0.1-6.3-0.3-9.5c-0.1-2,0.3-4-0.2-5.9l0.1-0.1l-0.1-0.1c-0.7-1.2,0-2.7-0.5-4l0.1-0.2l-0.1-0.1c-2.2-0.5-4.5-0.4-6.7-1.2
		l0.1,0c-0.3-0.2-0.6-0.3-0.9-0.3c-0.8-0.1-1.7,0.1-2.3-0.7c0.1-0.9,0.7-0.7,1.2-0.7c12.3,0,24.5,0,36.8,0c0.3,0,0.5,0.1,0.8,0.2
		c0.5,0,1,0,1.5,0c0.1,0.1,0.2,0.3,0.2,0.4c0,0.2,0,0.2-0.1,0.2c-1,1-2.3,0.5-3.4,0.7c0.6,0.2,1.3,0.3,1.4,1.1
		c-0.1,0.3-0.2,0.5-0.5,0.6c-2.1,0.6-4.4-0.1-6.4,1.1c-0.5,0.2-1,0.3-1.5,0.4c-4.2,0.7-4.8,1.3-4.8,5.6c-0.3,15-1.8,30-1,45
		c0.4,6.9,0.1,13.9,0.9,20.8c0.2,2.3,1.1,3.5,3.3,3.9c1.4,0.3,2.7,0.7,4,1.2c1.9,1,3.9,1.4,6,1.3c3.7-0.1,7.4,0.3,11.1-0.4
		c0.6-0.1,1.2,0,1.7,0.5c0.4,0.4,0.2,0.8,0,1.2c2.2,0.3,4.2-0.4,6.2-1.2c4.9-1.3,9.1-3.9,13.3-6.7c1.2-0.4,2.1-1.2,2.6-2.3
		c1.9-2.7,4.1-5.1,5.8-8c9.8-16.4,7.5-38.2-5.6-51.9c-3.8-4-8.5-6.9-13.8-8.6c-3.4-1.5-6.9-2.3-10.6-2.5c-1.4-0.1-2.8-0.1-3.8-1.3
		c-0.1-0.3,0.1-0.6,0.4-0.7c2,0,4.1-0.3,6.1,0.2l0,0c3.4,0.4,6.7,0.9,10,1.6c8.4,1.7,15.2,6,20.8,12.4c0.7,0.8,1.3,1.6,2,2.3
		c4.6,7.2,7.4,15,7.9,23.7c0.5,9.8-1.8,18.9-6.8,27.3c-0.3,0.9-1,1.6-1.7,2.2C389.5,255.4,385,259.3,379.9,262.3z"/>
	<path class="st54" d="M348.1,180.7c-4.1,0.4-8.1,0.2-12.2,0.2c-8.6,0-17.1,0-25.9,0c0.8,0.6,1.9,0.1,2.4,1
		c-1.2,0.2-2.4,0.5-3.6-0.1l0.1,0c-1.4-0.5-1.4-0.5-0.9-1.5c12.8,0,25.7,0,38.5,0C347,180.5,347.5,180.6,348.1,180.7z"/>
	<path class="st55" d="M371.1,182.8c-3.4-0.2-6.7-0.7-10-1.6C364.5,181.1,367.8,181.7,371.1,182.8z"/>
	<path class="st55" d="M349.4,181.2c0-0.2,0.1-0.3,0.1-0.5c1.6-0.3,3.1-0.1,4.7,0.1c0.2,0.2,0.5,0.2,0.6,0.5c0,0.1,0,0.3,0,0.4
		c-1.2,1.3-2.6,0.7-4,0.7C350.2,182.3,349.7,181.9,349.4,181.2z"/>
	<path class="st56" d="M354.8,181.3c-0.2-0.2-0.4-0.4-0.6-0.5c2.3-0.1,4.6-0.1,6.8,0.5C359,181.3,356.9,181.3,354.8,181.3z"/>
	<path class="st46" d="M393.3,250.7c0.6-0.7,1.1-1.5,1.7-2.2c0,0.4,0,0.8,0.1,1.2C394.4,250.1,393.8,250.4,393.3,250.7z"/>
	<path class="st45" d="M267,266c1.8-0.2,3.6-0.5,5.4-0.7c3.3-0.4,3.8-1.1,3.8-4.3c-0.1-8-0.2-16.1-0.3-24.1
		c-0.5-2.9-0.1-5.8-0.2-8.6c0-0.5,0.1-1,0.8-0.9c1.1,1,1,2.2,1,3.5c-0.3,1,0,2,0.3,3.1c1,8.1,1.3,16.3,1.9,24.4
		c0.1,1.2,0.3,2.4,0.5,3.6c0.2,0.9,0.3,1.9,1.5,1.8c1.2-0.1,1.2-1.2,1.1-2c-0.4-2.5-0.3-5-0.6-7.5c-0.6-6.2-1-12.5-1.4-18.7
		c-0.5-8.5-1.2-17-1.9-25.5c-0.4-5.7-0.9-11.4-1.3-17.1c-0.1-0.9,0.1-1.9-0.5-3.1c-0.9,1.6-1.5,3.1-1.5,4.7
		c-0.2,5.7,0.1,11.3,0.7,16.9c0.2,2.1,0.4,4.2,0.2,6.2c-0.4,1,0.1,2.5-1.4,3.1c-0.9-1.6,0.2-3.4-0.7-4.8c-0.9-4.5-1.1-9.2-1.7-13.8
		c-0.1-0.8,0.4-2.5-1.5-2c-0.5,0.1-0.5,0.5-0.5,0.9c-1.1,2.7-2.8,5.2-3.7,8c-0.2,0.5-0.6,0.9-1.1,1c-0.5,0.4-1,0.8-0.8,1.6
		c-0.3,1.2-0.6,2.4-1.7,3.1c-0.5,0.2-0.5,0.6-0.4,1c-0.4,0.8,0,1.8-0.8,2.4c-1.4,1-1.4,2.8-2.5,3.9c-0.8,1.5-2.2,2.7-2.4,4.5
		c-1,2-1.8,4.1-3.1,6l0,0c-0.3,0.7-0.3,1.7-1.2,2.1c-0.4,0.2-0.5,0.5-0.4,0.9c-1.3,2.3-2,4.9-3.8,6.9c-0.5,0.5-0.9,1.1-0.9,1.9
		c-0.3,0.8-0.5,1.6-1.1,2.3l0-0.1c-1,2-1.7,4.1-3.2,5.8c-2.6,4.8-5.3,9.7-8.1,14.7c-1.1-1.4-1.7-2.8-2.2-4.2c-0.4-0.5-0.2-1,0-1.4
		c2.3-2.8,2.4-3.7,0.8-6.8c-7.4-13.6-14.8-27.2-22.2-40.8c-4.7-8.6-9.4-17.3-13.9-26c-0.7-1.4-1.3-2.9-2.6-3.8
		c-0.6-0.4-1.3-0.8-1.9-0.4c-0.8,0.6-0.1,1.3,0.2,1.8c1.8,3.7,4.1,7.1,5.8,10.8c0.5,1.1,1.3,2.1,0.7,3.4c-0.5,0.6-1.3-0.1-1.7,0.5
		c-2,16.5-2.8,33.1-4,49.7c-0.3,3.9,0,7.8-0.2,11.7c-0.1,2.1,1.2,3.2,3.1,3.5c1.7,0.3,3.4,0.3,5.5,1.5c-7.9,0-15.3,0-22.8,0
		c1.3-1.2,3.1-1.2,4.7-1.4c2.4-0.2,4.1-1.3,4.2-3.8c1.5-22.3,5.1-44.5,4.9-66.9c0-6-3.8-10.6-9.5-12.1c-1.4-0.4-2.9-0.5-4.1-1.4
		c0.5-0.8,1.3-0.5,1.9-0.5c5.5,0,11,0,16.5-0.1c2.4-0.1,3.9,0.8,5,2.9c7.1,13.4,14.2,26.7,21.4,40.1c4.4,8.2,8.5,16.6,13.4,24.5
		c1.7,2.9,1.9,2.8,3.5-0.1c10.1-18.6,19.9-37.3,29.6-56.1c1.8-3.4,3.2-6.9,4.8-10.4c1.5-1.2,3.3-0.7,5-0.7c2.9,0,5.7,0.1,8.6,0.1
		c0.8,0.6,1.7,0.2,2.5,0.3c0.5,0.1,1.3-0.2,1.2,0.8c-2,0.3-3.9,0.7-5.9,0.9c-1.7,0.1-2.1,0.8-2.1,2.4c-0.1,7.2,0.1,14.4,0.6,21.6
		c1,15,1.9,30,3.3,44.9c0.3,3.5,1.1,7,1.5,10.6c0.2,1.8,1.3,2.5,2.9,2.8c1.4,0.3,2.9,0.6,4.3,0.9c0,1-0.8,0.7-1.3,0.7
		c-9.4,0-18.8,0-28.1,0C267.8,266.7,267,267,267,266z"/>
	<path class="st57" d="M233.6,261.7c-0.2,0.4-0.4,0.7-0.6,1.1c-3.6-5.6-6.4-11.6-9.6-17.5c-4-7.4-7.9-14.8-11.8-22.2
		c-0.4-0.6-0.2-1,0.4-1.2c1.4,0.3,1.9,1.5,2.5,2.5c6.2,11.4,12.4,22.9,18.6,34.3C233.6,259.7,234,260.6,233.6,261.7z"/>
	<path class="st58" d="M212.1,222.1c-0.2,0.3-0.3,0.7-0.5,1c-3.8-7.1-7.7-14.1-11.6-21.1c-0.4-0.8-0.4-2.3-2-1.8
		c0.4-0.8,1.1-0.5,1.8-0.6c1.3,0,1.8,1,2.3,1.9c3.3,5.9,6.6,11.9,9.7,17.9C212.2,220.2,212.7,221.1,212.1,222.1z"/>
	<path class="st47" d="M319.8,187.8c0.8,5.1,0.6,10.3,0.5,15.5c-0.9-0.9-0.5-2.1-0.6-3.2C319.7,196,319.8,191.9,319.8,187.8z"/>
	<path class="st50" d="M265.7,210c1.6-3,3.2-6,4.9-9c-0.4,3.2-2.8,5.5-3.5,8.5C267,210,266.3,210,265.7,210z"/>
	<path class="st47" d="M248.5,242.4c1.3-2.3,2.5-4.6,3.8-6.9C251.5,238,250.8,240.6,248.5,242.4z"/>
	<path class="st47" d="M253.9,232.5c1-2,1.7-4.2,3.1-6C256.5,228.8,255.7,230.9,253.9,232.5z"/>
	<path class="st47" d="M243.3,252.3c0.8-2.1,1.9-4,3.2-5.8C246,248.7,245.3,250.9,243.3,252.3z"/>
	<path class="st47" d="M312.5,182.2c2.3,0.3,4.6,0.1,6.7,1.2C316.9,183.4,314.6,183.4,312.5,182.2z"/>
	<path class="st47" d="M259.4,222c0.5-1.5,1.2-3,2.3-4.3c0.2,0.2,0.3,0.4,0.1,0.7C261,219.6,260.9,221.2,259.4,222z"/>
	<path class="st50" d="M261.8,218.4c0-0.2-0.1-0.5-0.1-0.7c0-0.9,0.6-1.4,1.1-2.1C262.9,216.7,263.9,218.1,261.8,218.4z"/>
	<path class="st50" d="M263.2,214.7c0.6-1,1.1-2.1,1.7-3.1C265,213,264.7,214.2,263.2,214.7z"/>
	<path class="st47" d="M319.3,183.6c0.5,1.3,0.6,2.6,0.5,4C318.8,186.4,319.4,185,319.3,183.6z"/>
	<path class="st47" d="M308.8,181.7c1.2,0,2.4,0.1,3.6,0.1c0.1,0.1,0.2,0.2,0.2,0.3C311.3,182.2,310,182.8,308.8,181.7z"/>
	<path class="st47" d="M307.9,180.3c-0.6,1.1,0.5,1,0.9,1.5c-0.8,0-1.7,0.2-1.9-0.9C306.9,180.3,307.5,180.4,307.9,180.3z"/>
	<path class="st50" d="M274.8,239.8c0.2,0.7,0.3,1.4,0.5,2.1C274,241.5,274.1,240.7,274.8,239.8z"/>
	<path class="st47" d="M246.5,246.6c0.1-0.9,0.5-1.7,1.1-2.3C247.6,245.2,247.4,246.1,246.5,246.6z"/>
	<path class="st47" d="M252.7,234.5c0.3-0.8,0.5-1.5,1.2-2.1C254,233.4,253.8,234.3,252.7,234.5z"/>
	<path class="st46" d="M314.8,265c-2.2,0.9-4.7,0.5-6.9,1.7c19.8-0.1,39.7,0.7,59.5-0.2c-1.4,0.9-3.1,1.1-4.7,1.1
		c-17.6,0-35.3,0-52.9,0c-0.5,0-1,0-1.6,0c-0.7,0-1.2-0.2-1.3-1c0-0.8,0.5-1.1,1.2-1C310.3,265.5,312.5,264.5,314.8,265z"/>
	<path class="st29" d="M267,266c0.5,0.6,1.3,0.5,2,0.5c9,0,18.1,0,27.1,0c0.6,0,1.2,0,1.7-0.4c0.5-0.1,1.1,0,1.1,0.4
		c0,1-0.9,0.5-1.4,0.6c-6.5,0-13,0-19.6,0c-4.4,0-8.8,0-13.6,0C265.2,265.7,266.1,265.8,267,266z"/>
	<path class="st59" d="M274.2,215.8c1.1,1.1,0.3,2.6,0.9,4.2c0.1-1.1,0.2-1.9,0.3-2.7c0.2,0,0.4,0,0.5,0.2c1.4,1.8,1.7,7.9,0.4,9.9
		c-0.2,0.2-0.3,0.3-0.5,0.5c-0.2,0.3-0.4,0.3-0.5,0C274.8,223.8,274.3,219.8,274.2,215.8z"/>
	<path class="st60" d="M293.1,181.9c-1-1.2-2.7,0-3.7-1.1c2.4-0.3,4.9-0.2,7.9,0.3C295.6,182,294.4,182,293.1,181.9z"/>
	<path class="st59" d="M275.3,227.8c0.2,0,0.4,0,0.5,0c0,3,0,6,0,8.9C275.3,233.8,275.4,230.8,275.3,227.8z"/>
	<path class="st46" d="M369.8,265.9c1.2-0.5,2.4-1,3.7-1C372.7,266.7,371.3,266.4,369.8,265.9z"/>
	<path class="st47" d="M341.2,262.7c-1.7-0.5-3.3-1.1-5-1.4c-2-0.4-3-1.5-3.1-3.5c-0.3-14.8-1.6-29.5-0.7-44.3
		c0.5-7.8,0.7-15.6,1-23.4c0.2-4.9,0.4-5,5.1-5.7c0.7-0.1,1.4-0.3,2-0.4c7.9-1,15.6-1.2,23.2,2c0.9,0.4,1.8,0.7,2.7,0.9
		c12.2,5.3,19.6,14.6,21.7,27.6c2.2,13.8,0.6,26.9-9.2,37.9c-2.2,2.5-4.9,4.4-7.4,6.5C362,264.8,351.7,264.3,341.2,262.7z"/>
	<path class="st28" d="M369.5,184.9c13.3,4.7,21,14.5,24.3,27.7c4,15.9,0.3,30.1-10.9,42.2c-0.8,0.8-1.6,1.7-2.6,2.2
		c-4.1,3.1-8.4,5.7-13.5,6.9c-1.6,0.6-3.3,0.7-4.9,1.1c-0.7,0.2-2,1-2.5-0.7c0.4-0.2,0.7-0.3,1.1-0.5c0.7-1,1.9-1.1,2.9-1.5
		c3-1,5.9-2.3,8.5-4.1c11.6-7.6,16.8-18.6,17-32.2c0.1-5.8-0.4-11.6-2.2-17.2c-3.1-9.9-9.5-17-19-21.2c-1.9-0.9-3.8-1.6-5.9-2.2
		c-1-0.5-2.1-0.7-3.2-0.9c-0.8-0.2-1.7-0.2-2-1.3c2.4-1.4,4.7,0,7.1,0.2C365.8,183.6,367.6,184.5,369.5,184.9z"/>
	<path class="st51" d="M322.4,223.6c0-12.8,0-25.6,0-38.4c0-1.4-0.3-2.8,2-2.8c2.3,0,2.2,1.2,2.2,2.8c0,25.6,0,51.2,0,76.8
		c0,1,0.6,2.3-1.1,2.8c-2.2,0.6-3,0.1-3-2.3c0-10,0-20,0-30C322.4,229.5,322.4,226.6,322.4,223.6z"/>
	<path class="st42" d="M372.1,258.7c-3.5,2.6-7.4,4.1-11.6,5.1c-0.7-0.7-1.4-0.3-2.2-0.2c-5.3,0.4-10.5,0.7-15.8-0.2
		c-0.5-0.1-1-0.2-1.3-0.7c6.8,0.9,13.7,1.3,20.5-0.4c3.5-0.9,6.6-2.7,9.8-4.2C371.8,258.1,372.1,258.3,372.1,258.7z"/>
	<path class="st61" d="M369.5,184.9c-3-0.6-6.1-1.2-9.1-1.8c-1.2-0.2-2.4-0.6-3.5,0.3c-0.3,0.4-0.7,0.6-1.1,0.5
		c-2.7-0.5-5.6-0.1-8.3-1c-1.2-0.5-2.8,0.8-3.6-1c2.2-0.7,4.5-0.2,6.7-0.3c1.4,0.1,2.8,0.1,4.2,0.2c4,0.9,8.2,0.5,12.1,2.1
		C367.8,184.2,368.7,184.3,369.5,184.9z"/>
	<path class="st62" d="M362.3,184.9c2,0.3,3.9,1,5.6,2.1c-0.2,0.6-0.7,0.6-1.2,0.7c-8.4-3.4-17.1-4.2-26.1-3.7
		c2.1-1.2,4.4-0.4,6.6-0.7C352.4,182.6,357.4,183.9,362.3,184.9z"/>
	<path class="st63" d="M362.3,184.9c-5-0.5-9.9-1.9-15-1.6c0.1-0.1,0.1-0.3,0.1-0.4c3.2-0.4,6.3,0.3,9.4,0.5
		C358.7,184,360.6,183.9,362.3,184.9z"/>
	<path class="st64" d="M359.4,264.3c1.4,1.2,2.8,0,4.1,0c1.1,0,2.1-0.7,3.3-0.4c-2.4,1.2-5,1.4-7.5,1.6c-0.5,0.1-1.5,0.3-1.5-0.5
		C357.8,264.1,358.8,264.4,359.4,264.3z"/>
	<path class="st54" d="M350.5,181.6c-2.2,0.1-4.5,0.2-6.7,0.3c1.7-1.3,3.7-0.3,5.6-0.7C349.8,181.4,350.2,181.5,350.5,181.6z"/>
	<path class="st65" d="M380.3,257c0.8-0.9,1.6-1.7,2.6-2.2C382.5,256,381.7,256.9,380.3,257z"/>
	<path class="st34" d="M212.1,222.1c-3.8-7.6-7.8-15.2-12.3-22.5c-2.6-5-5.2-10-7.9-14.9c-1.1-1.9-0.2-2.2,1.4-2.3
		c2-0.1,3,1.1,3.8,2.6c4.7,8.6,9.3,17.3,14,25.9c5.4,9.9,10.7,19.9,16.1,29.8c2.6,4.9,5.4,9.7,8,14.6c1.4,2.7,1,4.4-1.6,6.5
		c-5.3-9.9-10.6-19.8-15.9-29.6C215.9,228.7,214,225.4,212.1,222.1z"/>
	<path class="st34" d="M276.3,227.3c-0.2-3.4-0.2-6.7-0.9-10.1c-0.2-6.7-1.2-13.3-1.3-20.1c-0.1-3.4,0.8-6.3,2.2-9.3
		c0.3-0.5,0.4-1.3,1.2-1.1c0.6,0.2,0.5,0.9,0.5,1.3c0.5,5.6,0.9,11.3,1.3,16.9c1.4,18.8,2.8,37.7,4.2,56.5c0.1,1.6,0.5,3.1-2,3.3
		c-2.2,0.1-2.6-1-2.8-2.8c-0.6-9.5-1.3-19-2-28.6c-0.5-0.9,0-1.9-0.4-2.7C276.4,229.6,276.4,228.5,276.3,227.3z"/>
	<path class="st59" d="M276.5,230.8c0.5,0.9,0.5,1.8,0.4,2.7C276.1,232.7,276.4,231.8,276.5,230.8z"/>
	<path class="st66" d="M366.7,187.7c0.3-0.5,0.7-0.6,1.2-0.7c9.7,3.8,16.1,10.9,19.2,20.6c3.4,10.6,4,21.5,0.5,32.3
		c-2.7,8.3-7.9,14.5-15.5,18.8c-0.2-0.2-0.4-0.4-0.7-0.6c8.3-6.3,14.2-14.4,15.8-24.8c1.6-10.4,1.3-20.8-3.9-30.4
		c-3.4-6.4-8.7-10.7-14.9-14.1C367.9,188.4,367.3,188,366.7,187.7z"/>
</g>
</svg>
