<?xml version="1.0" encoding="utf-8"?>
<!-- Generator: Adobe Illustrator 19.2.1, SVG Export Plug-In . SVG Version: 6.00 Build 0)  -->
<svg version="1.1" id="Ebene_1" xmlns="http://www.w3.org/2000/svg" xmlns:xlink="http://www.w3.org/1999/xlink" x="0px" y="0px"
	 viewBox="0 0 196.1 58.1" style="enable-background:new 0 0 196.1 58.1;" xml:space="preserve">
<style type="text/css">
	.st0{fill:#2D2D2D;}
	.st1{fill:#2F2F2F;}
	.st2{fill:#2A2A2A;}
	.st3{fill:#2B2B2B;}
	.st4{fill:#2C2C2C;}
	.st5{fill:#292929;}
	.st6{fill:#383838;}
	.st7{fill:#3B3B3B;}
	.st8{fill:#393939;}
	.st9{fill:#FEFEFE;}
	.st10{fill:#272727;}
	.st11{fill:#252525;}
	.st12{fill:#262626;}
	.st13{fill:#282828;}
	.st14{fill:#242424;}
	.st15{fill:#707070;}
	.st16{fill:#737373;}
	.st17{fill:#727272;}
	.st18{fill:#717171;}
	.st19{fill:#6F6F6F;}
	.st20{fill:#D0D0D0;}
	.st21{fill:#DBDBDB;}
	.st22{fill:#D7D7D8;}
	.st23{fill:#EFEFEF;}
	.st24{fill:#E8E8E8;}
	.st25{fill:#A5A5A5;}
	.st26{fill:#DEDEDE;}
	.st27{fill:#CBCBCB;}
	.st28{fill:#E9E9E9;}
	.st29{fill:#868788;}
	.st30{fill:#DADADC;}
	.st31{fill:#D9DADC;}
	.st32{fill:#9FA0A2;}
	.st33{fill:#E3E4E7;}
	.st34{fill:#FBFBFB;}
	.st35{fill:none;}
	.st36{font-family:'MyriadPro-Regular';}
	.st37{font-size:18px;}
</style>
<g>
	<path class="st0" d="M196.1,8.7c0.1-5.2-4-8.7-8.7-8.7C157.6,0.1,127.8,0.1,98,0.1c-26.6,0-53.1,0-79.7,0c-3.5,0-7,0-10.6,0
		C3.5,0.1,0,3.6,0,7.8C0,22,0,36.1,0,50.3c0,3.1,1.5,5.3,4.1,6.8c1.6,0.9,3.3,1,5.1,1c59.1,0,118.2,0,177.4,0c0.4,0,0.8,0,1.2,0
		c5.2-0.3,8.2-3.5,8.2-8.7C196,35.8,195.9,22.3,196.1,8.7z"/>
	<g>
		<path class="st1" d="M34.5,55.4c-4.3,0-8.6,0-12.9,0c-0.2-0.1-0.3,0-0.5,0c-0.1,0-0.3,0-0.5,0c-0.2,0-0.3,0-0.5,0
			c-0.2,0-0.4,0-0.6,0c-0.2,0-0.3,0-0.5,0c-0.1,0-0.2,0-0.3,0c-0.1,0-0.2,0-0.3,0c0,0-0.1,0-0.2,0c-0.3,0-0.7,0-1,0
			c-1.6,0-3.2-0.3-4.7-0.8c-1.5-0.5-2.8-1.3-3.9-2.4c-0.9-0.9-1.7-1.8-2.2-2.9c-0.6-1.1-0.9-2.4-1.1-3.6c-0.2-1.1-0.2-2.2-0.2-3.3
			c0-0.1,0-0.1,0-0.2c0,0,0-0.1,0-0.2c0.1-0.1,0-0.3,0-0.4c0-0.1,0-0.2,0-0.3c0-0.1,0-0.2,0-0.4c0-0.1,0-0.2,0-0.4
			c0-0.1,0-0.3,0-0.4c0-0.2,0-0.5,0-0.7c0-0.2,0-0.5,0-0.7C5,32.3,5,26,5,19.6c0.1-0.2,0-0.5,0-0.7c0-0.2,0-0.5,0-0.7
			c0-0.1,0-0.3,0-0.4c0-0.1,0-0.2,0-0.4c0-0.1,0-0.2,0-0.4c0-0.1,0-0.2,0-0.3c0-0.1,0-0.3,0-0.4c0,0,0-0.1,0-0.2c0-0.4,0-0.7,0-1.1
			c0-1.6,0.3-3.2,0.8-4.7c0.5-1.5,1.3-2.8,2.4-3.9c0.9-0.9,1.8-1.6,2.9-2.2c1.1-0.6,2.4-0.9,3.6-1.2c1.1-0.2,2.2-0.2,3.3-0.2
			c0.1,0,0.1,0,0.2,0c0,0,0.1,0,0.2,0c0.1,0.1,0.2,0,0.3,0c0.1,0,0.3,0,0.5,0c0,0,0.1,0,0.1,0c0.1,0,0.3,0,0.4,0c0.3,0,0.5,0,0.8,0
			c0.2,0,0.3,0,0.5,0c0.2,0,0.4,0,0.6,0c6.5,0,12.9,0,19.4,0c0.2,0.1,0.4,0,0.6,0c0.2,0,0.3,0,0.5,0c0.3,0,0.5,0,0.8,0
			c0.1,0,0.3,0,0.4,0c0,0,0.1,0,0.1,0c0.1,0.1,0.2,0,0.4,0c0.1,0,0.2,0,0.3,0c0.1,0,0.2,0,0.3,0c1.8,0,3.6,0.1,5.3,0.7
			c1.6,0.5,3,1.3,4.3,2.5c0.9,0.8,1.6,1.8,2.2,2.9c0.5,0.9,0.8,1.9,1.1,2.9c0.2,1.1,0.4,2.3,0.4,3.4c0,0.3,0,0.6,0,0.9
			c0,0.2,0,0.3,0,0.5c-0.1,0.1,0,0.2,0,0.4c0,0.1,0,0.2,0,0.3c0,0.1,0,0.3,0,0.4c0,0.3,0,0.5,0,0.8c0,0.4,0,0.8,0,1.1
			c0,2.4,0,4.9,0,7.3c-0.2,0.1-0.2-0.1-0.3-0.1c-0.6-0.6-1.2-1.2-1.8-1.8c-1.4-1.4-2.9-2.9-4.3-4.3c-0.1-0.1-0.2-0.2-0.3-0.3
			c-0.9-0.9-1.8-1.8-2.7-2.7c-1.6-1.6-3.2-3.2-4.8-4.8c0.1,0.5,0,0.9,0,1.3c0.1,0.5,0,1.1,0.1,1.6c0,0.6,0.1,1.3,0.1,1.9
			c0,0.1,0,0.3-0.1,0.4c-0.1,0-0.1-0.2-0.1-0.3c0-0.9-0.1-1.9-0.1-2.8c0-0.7,0-1.5-0.1-2.2c0-0.2-0.1-0.3-0.3-0.3
			c-1.7,0.1-3.5,0.1-5.2,0.1c-1.1,0-2.2-0.1-3.2-0.1c-0.4,0-0.8,0-1.2,0c-1.1-0.1-2.2-0.1-3.2-0.1c-0.9,0-1.8,0.2-2.6,0.4
			c-2.5,0.6-4.8,1.6-6.8,3.2c-1.1,0.9-2.1,2-2.9,3.2c-0.8,1.2-1.5,2.6-2,4c-0.4,1.2-0.7,2.5-0.9,3.8c0,0.5-0.1,1-0.1,1.4
			c0,1.2,0.1,2.4,0.4,3.6c0.3,1.4,0.7,2.7,1.3,4c0.9,1.8,2.1,3.3,3.6,4.6c0.1,0.1,0.3,0.2,0.4,0.4c0,0,0,0.1,0,0.1
			c1.6,1.6,3.2,3.2,4.8,4.8c0.8,0.8,1.6,1.6,2.5,2.5c0.7,0.8,1.5,1.5,2.3,2.3c0.7,0.7,1.4,1.4,2.2,2.2c0.7,0.7,1.5,1.5,2.2,2.2
			C34.3,55.2,34.5,55.3,34.5,55.4z"/>
		<path class="st2" d="M34.2,55.1c-0.8-0.7-1.5-1.5-2.2-2.2c0-0.1,0.1-0.2,0.2-0.2c0.4-0.4,0.9-0.8,1.3-1.2c0.5-0.5,1-1,1.5-1.5
			c0.3-0.3,0.6-0.6,0.9-0.8c0.3-0.3,0.6-0.6,0.9-1c0.7-0.7,1.4-1.4,2.1-2.1c0.4-0.4,0.8-0.9,1.3-1.3c0.6-0.6,1.1-1.2,1.7-1.7
			c0.2-0.2,0.5-0.5,0.7-0.7c0-0.1,0.1-0.1,0.2-0.2c0,0,0,0,0.1,0c0.1,0,0.1,0,0.2-0.1c0,0,0,0,0.1,0c0.2-0.1,0.3-0.1,0.5-0.2
			c0,0,0,0,0.1,0c0.1-0.1,0.2-0.2,0.2-0.4c0-0.1,0-0.2,0-0.3c0.4-0.5,0.9-0.9,1.4-1.4c0.5-0.5,1.1-1.1,1.6-1.6c0.3-0.3,0.7-0.6,1-1
			c0.3-0.3,0.7-0.7,1-1c0.4-0.4,0.8-0.8,1.2-1.2c0.6-0.6,1.2-1.2,1.7-1.8c0.4-0.5,0.9-0.8,1.3-1.3C54,30.9,55,30,55.8,29
			c0.2-0.2,0.5-0.4,0.6-0.6c0.3-0.3,0.6-0.6,0.9-0.9c0.1-0.1,0.1-0.2,0.3-0.1c0,1.5,0,2.9,0,4.4c-0.2,0.3-0.5,0.5-0.8,0.8
			c-0.6,0.6-1.1,1.2-1.7,1.7c-0.7,0.6-1.3,1.3-2,2c-0.8,0.8-1.6,1.6-2.3,2.4c-0.5,0.5-0.9,0.9-1.4,1.4c-0.6,0.6-1.2,1.3-1.9,1.9
			c-0.6,0.6-1.2,1.2-1.8,1.8c-1,0.9-1.9,1.9-2.9,2.9c-0.7,0.7-1.4,1.3-2,2c-1,1-2,2-3,3c-0.7,0.7-1.4,1.4-2.1,2.1
			c-0.5,0.4-0.9,0.9-1.3,1.4C34.4,55.1,34.3,55.2,34.2,55.1z"/>
		<path class="st3" d="M34.2,55.1c0.2-0.1,0.4-0.3,0.5-0.5c0.6-0.6,1.2-1.2,1.7-1.7c0.4-0.4,0.8-0.7,1.2-1.1
			c0.5-0.6,1.1-1.1,1.6-1.7c0.3-0.3,0.7-0.6,1-1c0.4-0.4,0.8-0.8,1.2-1.3c0.3-0.3,0.7-0.6,1-0.9c0.1-0.1,0.2-0.3,0.4-0.4
			c0.6-0.6,1.2-1.2,1.7-1.8c0.4-0.4,0.7-0.8,1.1-1.1c0.4-0.3,0.7-0.7,1-1c0.5-0.5,1.1-1,1.5-1.5c0.6-0.6,1.2-1.2,1.8-1.8
			c0.4-0.5,0.9-0.8,1.3-1.3c0.3-0.4,0.7-0.7,1-1c0.3-0.3,0.6-0.6,0.9-0.9c0.4-0.3,0.7-0.7,1.1-1.1c0.2-0.2,0.4-0.4,0.7-0.6
			c0.3-0.3,0.6-0.6,0.9-0.9c0.3-0.4,0.8-0.8,1.2-1.2c0.2-0.2,0.3-0.4,0.6-0.5c0,1.5,0,2.9,0,4.4c-0.1,0.2-0.3,0.4-0.5,0.6
			c-0.1,0.1-0.2,0.2-0.3,0.3c-0.4,0.5-1,0.9-1.4,1.4c-0.3,0.4-0.7,0.7-1.1,1.1c-0.5,0.5-1,1-1.5,1.5c-0.5,0.5-1,1.1-1.5,1.6
			c-0.8,0.7-1.5,1.5-2.3,2.3c-0.3,0.3-0.7,0.7-1,1c-0.5,0.6-1.1,1.1-1.6,1.6c-0.5,0.5-1,1-1.5,1.5c-0.8,0.7-1.5,1.5-2.3,2.3
			c-0.2,0.2-0.4,0.4-0.5,0.6c-0.3,0.3-0.6,0.6-0.9,0.9c-0.5,0.4-0.9,1-1.4,1.4c-0.5,0.4-0.9,0.9-1.3,1.3c-1.3,0-2.7,0-4,0
			C34.4,55.3,34.3,55.2,34.2,55.1z"/>
		<path class="st4" d="M38.5,55.4c0-0.1,0-0.1,0.1-0.2c0.3-0.3,0.5-0.6,0.8-0.8c0.2-0.3,0.5-0.5,0.8-0.8c0.3-0.3,0.7-0.7,1-1
			c0.2-0.2,0.5-0.4,0.7-0.6c0.5-0.6,1.1-1.1,1.7-1.7c0.4-0.4,0.7-0.8,1.1-1.1c0.5-0.4,0.9-0.9,1.4-1.4c0.3-0.3,0.7-0.7,1-1
			c0.3-0.3,0.6-0.6,0.9-0.9c0.5-0.5,0.9-1,1.4-1.4c0.5-0.4,0.8-0.9,1.3-1.3c0.5-0.5,1-0.9,1.5-1.5c0.4-0.4,0.8-0.8,1.2-1.2
			c0.4-0.4,0.9-0.8,1.3-1.3c0.3-0.3,0.5-0.6,0.8-0.8c0.3-0.3,0.5-0.5,0.8-0.8c0.2-0.2,0.5-0.3,0.6-0.6c0.2-0.4,0.6-0.6,0.9-0.9
			c0,0.8,0,1.6,0,2.4c-0.1,0.3,0,0.5,0,0.8c0,0.3,0,0.5,0,0.7c0,0.2,0,0.4,0,0.6c0,0.1,0,0.2,0,0.4c0,0,0,0.1,0,0.2
			c-0.1,0.2-0.2,0.3-0.4,0.4c-0.7,0.6-1.3,1.3-2,2c-0.4,0.4-0.7,0.7-1.1,1.1c-0.3,0.4-0.7,0.7-1.1,1c-0.2,0.2-0.5,0.5-0.7,0.7
			c-0.7,0.7-1.4,1.4-2.1,2.1c-0.7,0.7-1.4,1.4-2.1,2.1c-0.4,0.3-0.7,0.7-1,1.1c-0.8,0.7-1.5,1.5-2.2,2.2c-0.4,0.4-0.9,0.9-1.3,1.3
			c0,0-0.1,0.1-0.1,0.1c-0.1,0-0.2,0-0.2,0c-0.1,0-0.2,0-0.4,0c-0.3,0-0.5,0-0.8,0c-0.1,0-0.3,0-0.5,0c-0.2,0-0.3,0-0.5,0
			C40.2,55.4,39.4,55.4,38.5,55.4z"/>
		<path class="st0" d="M43.5,55.4c0-0.2,0.2-0.4,0.4-0.5c0.2-0.2,0.4-0.4,0.6-0.5c0.6-0.6,1.2-1.2,1.8-1.8c0.4-0.4,0.9-0.9,1.3-1.3
			c0.3-0.3,0.5-0.6,0.8-0.9c0.8-0.8,1.6-1.6,2.4-2.4c0.5-0.5,0.9-0.9,1.3-1.3c0.3-0.3,0.6-0.6,0.9-0.9c0.2-0.2,0.4-0.5,0.7-0.7
			c0.4-0.3,0.6-0.7,1-1c0.3-0.3,0.7-0.6,1-0.9c0.4-0.4,0.8-0.8,1.2-1.2c0.3-0.3,0.5-0.6,0.9-0.8c0.1,0,0,0.1,0,0.2
			c0,0.1,0,0.3,0,0.4c0,0.1,0,0.2,0,0.3c0,0.3,0,0.6,0,0.9c0,1.6-0.2,3.2-0.7,4.8c-0.5,1.4-1.3,2.7-2.3,3.8c-0.9,1-1.9,1.8-3.1,2.4
			c-1,0.5-2,0.8-3.1,1c-1,0.2-2.1,0.3-3.1,0.3c-0.4,0-0.7,0-1.1,0c0,0-0.1,0-0.1,0c-0.1,0-0.2,0-0.3,0c-0.1,0-0.2,0-0.2,0
			C43.6,55.4,43.5,55.4,43.5,55.4z"/>
		<path class="st5" d="M57.6,27.5c-0.1,0-0.2,0.1-0.2,0.2c0,0,0,0.1-0.1,0.1c-0.5,0.4-0.8,0.9-1.3,1.3c-0.3,0.2-0.5,0.6-0.8,0.8
			c-0.6,0.6-1.1,1.1-1.7,1.7c-0.4,0.4-0.8,0.8-1.3,1.2c-0.5,0.5-1,1.1-1.6,1.6c-0.4,0.4-0.9,0.8-1.3,1.3c-0.1,0.2-0.4,0.3-0.5,0.5
			c-0.2,0.3-0.6,0.5-0.8,0.8c-0.1,0.2-0.3,0.3-0.5,0.5c-0.4,0.4-0.7,0.8-1.1,1.1c-0.4,0.4-0.7,0.8-1.1,1.1c-0.4,0.4-0.8,0.8-1.2,1.2
			c0,0-0.1,0.1-0.2,0.1c-0.1,0-0.1-0.1-0.1-0.2c0-0.4,0-0.8,0-1.2c0-0.2,0-0.4,0-0.6c0-0.9,0-1.8,0.2-2.8c0.1-0.2,0.2-0.3,0.4-0.5
			c1-1,2-2.1,3-3c0.6-0.6,1.2-1.3,1.9-1.9c0.4-0.4,0.8-0.8,1.2-1.2c0.3-0.3,0.6-0.7,1-1c1-0.9,1.9-1.9,2.9-2.9
			c0.3-0.3,0.6-0.5,0.8-0.8c0-0.1,0.1-0.1,0.2-0.1c0.6,0.6,1.2,1.2,1.8,1.8c0.1,0.1,0.1,0.2,0.3,0.2C57.6,27.1,57.6,27.3,57.6,27.5z
			"/>
		<path class="st6" d="M57.6,39.4c0-0.3-0.1-0.5,0-0.8C57.6,38.8,57.6,39.1,57.6,39.4C57.6,39.4,57.6,39.4,57.6,39.4z"/>
		<path class="st7" d="M5.1,39.4C5,39.4,5,39.4,5.1,39.4c0-0.2,0-0.4,0-0.7C5.1,38.9,5,39.1,5.1,39.4z"/>
		<path class="st7" d="M5,18.9C5,18.9,5,18.9,5,18.9c0,0.2,0.1,0.5,0,0.7C5,19.4,5,19.1,5,18.9z"/>
		<path class="st8" d="M41.1,55.4c0.1-0.1,0.3,0,0.5,0c0,0,0,0,0,0C41.4,55.4,41.3,55.4,41.1,55.4z"/>
		<path class="st9" d="M20.3,41.1c-0.7-0.6-1.3-1.1-1.9-1.8c-1.5-1.6-2.5-3.5-3.1-5.6c-0.8-2.8-1-5.6-0.3-8.5c0.4-1.5,0.9-3,1.7-4.4
			c0.6-1.2,1.4-2.3,2.3-3.3c1.1-1.2,2.3-2.1,3.6-2.9c1.3-0.7,2.7-1.3,4.1-1.7c1.8-0.5,3.7-0.6,5.6-0.5c3.5,0.2,7,0.3,10.5,0.1
			c0.4,0,0.4,0,0.4,0.4c0.1,1.7,0.1,3.4,0.2,5c0,0.1,0,0.1,0,0.2c0,0,0.1,0.1,0.1,0.1c0,0.4,0,0.8,0,1.2c0,0.1-0.1,0.2-0.2,0.2
			c-0.1,0-0.2,0-0.2-0.1c-0.1-0.1-0.1-0.2-0.1-0.3c-0.3-0.8-0.5-1.6-0.7-2.5c0-0.1-0.1-0.2-0.1-0.3c-0.1-0.4-0.2-0.8-0.3-1.2
			c-0.1-0.2-0.2-0.4-0.5-0.5c-1.2-0.3-2.5-0.5-3.7-0.7c-1-0.1-2-0.2-3-0.2c-0.7,0-1.4,0-2.1,0c-0.9,0-1.8,0.1-2.6,0.3
			c-2.2,0.5-4.2,1.3-5.9,2.8c-1.4,1.2-2.4,2.6-3.1,4.2c-0.8,1.7-1.2,3.4-1.3,5.3c-0.1,2,0,4,0.6,6c0.5,1.4,1.1,2.7,2,3.9
			c0,0.1,0.1,0.1,0.1,0.2c0,0.1,0.1,0.2,0.2,0.3c1.7,2.1,3.7,3.7,6.3,4.6c0.8,0.3,1.7,0.5,2.5,0.6c1,0.2,2.1,0.3,3.1,0.2
			c1,0,2-0.2,2.9-0.4c0.4-0.1,0.8-0.1,1.3-0.2c0.2,0,0.3-0.1,0.4-0.4c0.3-1.6,0.4-3.2,0.4-4.8c0-1-0.2-2.1-0.4-3.1
			c0-0.2-0.1-0.3-0.3-0.3c-0.3,0-0.5-0.1-0.8-0.1c0,0-0.1,0-0.1,0c-1.1-0.1-2.3-0.3-3.4-0.4c-0.2,0-0.5-0.1-0.7-0.1
			c-0.1,0-0.3-0.1-0.3-0.3c0-0.2,0.2-0.2,0.3-0.2c0.1,0,0.1,0,0.2,0c4.4,0,8.9,0,13.3,0c0.2,0,0.4,0,0.5,0.1c0.1,0.1,0,0.2-0.1,0.3
			c-0.8,0.2-1.6,0.4-2.4,0.6c0,0,0,0-0.1,0c-0.1,0-0.2,0-0.3,0.1c-0.1,0.1-0.3,0.1-0.4,0.1c-0.1,0.1-0.2,0.2-0.2,0.3
			c-0.1,0.8-0.2,1.6-0.3,2.4c-0.1,0.2-0.1,0.4-0.1,0.6c0,0.4-0.1,0.7-0.1,1.1c0,1.2-0.1,2.4-0.1,3.6c0,0.2,0,0.3-0.2,0.4h0
			c-0.2,0.1-0.4,0.1-0.6,0.2l0,0c-0.1,0.1-0.2,0.1-0.3,0.1h0c-0.4,0.3-0.9,0.4-1.3,0.6c0,0,0,0-0.1,0c-0.5,0.1-1,0.3-1.5,0.5
			c0,0,0,0-0.1,0c-0.5,0.1-1,0.3-1.5,0.4c0,0,0,0-0.1,0c-0.1,0-0.2,0-0.3,0.1c-0.2,0.1-0.4,0.1-0.6,0.1c-0.6,0.1-1.2,0.2-1.9,0.3
			c-0.4,0.1-0.8,0.1-1.2,0.2c-0.8,0.1-1.7,0.2-2.5,0.2c-0.1,0-0.2,0-0.3,0c-0.5,0-0.9,0-1.4,0c-0.4-0.1-0.8-0.1-1.1-0.1
			C28.1,44.5,27,44.3,26,44c-0.1,0-0.1,0-0.2,0c-0.1,0-0.1,0-0.2,0c-0.4-0.2-0.8-0.3-1.2-0.4c-0.2-0.1-0.4-0.2-0.6-0.2
			c-1.1-0.5-2.1-1-3.1-1.7C20.6,41.4,20.4,41.3,20.3,41.1z"/>
		<path class="st10" d="M47.8,32.6c0-0.1,0.1-0.1,0.2-0.2c-0.1-0.2-0.3-0.1-0.4-0.1c-2.2,0-4.3,0-6.5,0c-0.4,0-0.8,0-1.3,0
			c-0.2,0-0.1-0.1-0.1-0.2c0.2-0.3,0.4-0.5,0.6-0.7c0.5-0.5,0.9-0.9,1.4-1.4c0.6-0.6,1.2-1.2,1.8-1.8c0.4-0.4,0.7-0.8,1.1-1.1
			c0.3-0.2,0.5-0.6,0.8-0.8c0.5-0.4,0.9-0.9,1.3-1.4c0.6-0.6,1.2-1.2,1.7-1.8c0.2-0.2,0.5-0.5,0.8-0.7c0.2-0.2,0.4-0.4,0.6-0.6
			c0.3-0.4,0.7-0.7,1.1-1.1c0.1-0.1,0.2-0.1,0.3,0c0,0,0.1,0.1,0.1,0.1c1.4,1.4,2.7,2.7,4.1,4.1c0,0,0.1,0.1,0.1,0.1
			c-0.6,0.6-1.2,1.1-1.7,1.7c-0.3,0.4-0.7,0.7-1,1c-0.5,0.5-1,1-1.5,1.5c-0.2,0.3-0.5,0.6-0.8,0.7c-0.2,0.1-0.3,0.3-0.5,0.5
			c-0.3,0.3-0.6,0.5-0.9,0.9c-0.2,0.3-0.5,0.5-0.8,0.7c-0.1,0.1-0.2,0.2-0.3,0.3c-0.6,0.6-1.2,1.2-1.8,1.8c-0.4,0.4-0.7,0.7-1.1,1.1
			c-0.3,0.3-0.6,0.6-0.9,0.9c0,0.1-0.1,0.1-0.2,0.1c-0.1,0,0-0.1,0-0.1c0.1-0.3,0.1-0.6,0.1-1c0-0.5,0.2-1,0.2-1.5
			c0-0.1,0.1-0.3,0.2-0.3c0.1-0.1,0.3,0,0.4-0.1c0.1-0.1,0.2,0,0.3-0.1h0c0.6-0.1,1.2-0.3,1.8-0.4C47.3,32.7,47.6,32.7,47.8,32.6z"
			/>
		<path class="st5" d="M37.5,43.9c0.2,0,0.4-0.1,0.6-0.2c0.1,0,0.2,0,0.3-0.1h0c0.5-0.1,1.1-0.3,1.6-0.5h0c0.5-0.2,1.1-0.4,1.6-0.6
			h0c0.3-0.1,0.6-0.2,0.9-0.3c0.1,0,0.1-0.1,0.2,0c0,0.3-0.3,0.3-0.5,0.5c-0.5,0.6-1.1,1.2-1.7,1.8c-0.3,0.3-0.6,0.7-1,1
			c-0.6,0.5-1,1.1-1.6,1.6c-0.5,0.4-0.9,0.9-1.4,1.4c-0.4,0.4-0.7,0.8-1.1,1.1c-0.2,0.2-0.4,0.4-0.6,0.6c-0.5,0.5-1,1-1.5,1.6
			c-0.4,0.4-0.8,0.8-1.2,1.2c0,0-0.1,0-0.1,0.1c-0.7-0.7-1.5-1.4-2.2-2.2c0.4-0.4,0.8-0.9,1.2-1.2c0.4-0.4,0.8-0.8,1.2-1.2
			c0.4-0.4,0.8-0.8,1.2-1.2c1-0.9,1.9-1.9,2.9-2.9c0.1-0.1,0.1-0.1,0.2-0.1C36.8,44,37.2,44,37.5,43.9z"/>
		<path class="st11" d="M42.3,16.5c0.3,0.9,0.6,1.9,0.9,2.8c0,0,0,0.1,0,0.1c0,0.1,0.1,0.2,0.2,0.2c0.1,0,0.1-0.1,0.1-0.2
			c0-0.4,0-0.8,0-1.2c0-0.8,0-1.7-0.1-2.5c0-0.7,0-1.4-0.1-2.2c0-0.3-0.1-0.5,0-0.8c0.1,0,0.1,0.1,0.2,0.1c1.6,1.6,3.2,3.2,4.7,4.7
			c0,0,0.1,0.1,0.1,0.1c0,0.1-0.1,0.2-0.1,0.3c-0.5,0.4-0.9,0.9-1.4,1.4c-0.3,0.3-0.6,0.5-0.8,0.8c-0.2,0.2-0.4,0.4-0.6,0.6
			c-0.4,0.4-0.8,0.8-1.2,1.2c-0.1,0.1-0.2,0.2-0.3,0.2c-0.1,0-0.2-0.1-0.3-0.2c-0.5-0.6-1.2-1.1-2-1.2c-0.3-0.1-0.6-0.1-0.9-0.1
			c0,0-0.1,0-0.1,0c-0.2-0.1-0.4,0-0.6,0c-0.1,0-0.3,0-0.4,0c-0.1,0-0.1,0-0.2,0c-0.1,0-0.1,0-0.2-0.1c-0.1-0.1,0-0.2,0.1-0.3
			c0.5-0.4,0.9-0.9,1.4-1.4c0.5-0.5,1.1-1.1,1.6-1.6c0.1-0.1,0.2-0.2,0.1-0.4C42.2,16.8,42.1,16.7,42.3,16.5z"/>
		<path class="st12" d="M43.7,22.3c0.3-0.1,0.4-0.4,0.6-0.6c0.3-0.3,0.6-0.5,0.8-0.8c0.3-0.3,0.7-0.5,0.8-0.9
			c0.1-0.1,0.2-0.1,0.3-0.2c0.3-0.3,0.6-0.6,1-1c0.3-0.3,0.7-0.7,1-1c0.6,0.6,1.2,1.2,1.8,1.8c0.3,0.3,0.6,0.6,0.9,0.9
			c0,0.1-0.1,0.2-0.2,0.3c-0.6,0.5-1.1,1.1-1.6,1.6c-0.6,0.6-1.2,1.2-1.9,1.9c-0.5,0.5-1,0.9-1.4,1.4c-0.6,0.6-1.2,1.1-1.7,1.7
			c-0.1,0.1-0.2,0.2-0.3,0.1c0,0,0-0.1,0-0.1c0-0.1,0.1-0.2,0.1-0.3c0.7-1.5,0.7-2.9-0.1-4.3C43.8,22.5,43.7,22.4,43.7,22.3z"/>
		<path class="st13" d="M36.5,44.1c-0.4,0.4-0.8,0.8-1.2,1.2c-0.4,0.4-0.8,0.8-1.2,1.3c-0.2,0.2-0.4,0.3-0.5,0.5
			c-0.3,0.3-0.6,0.6-0.9,0.9c-0.5,0.5-1,1-1.5,1.5c-0.3,0.3-0.6,0.5-0.8,0.8c-0.1,0.2-0.3,0.3-0.5,0.4c-0.8-0.7-1.5-1.5-2.3-2.3
			c0.5-0.5,0.9-0.9,1.4-1.4c0.6-0.5,1.1-1.1,1.7-1.7c0.3-0.3,0.6-0.6,0.9-0.9c1,0,1.9-0.1,2.9-0.2c0.6-0.1,1.2-0.2,1.9-0.3
			C36.4,44.1,36.4,44.1,36.5,44.1z"/>
		<path class="st10" d="M31.6,44.6c-0.1,0.3-0.4,0.5-0.7,0.8c-0.4,0.4-0.9,0.8-1.3,1.3c-0.2,0.3-0.5,0.5-0.7,0.7
			c-0.3,0.3-0.6,0.6-1,1c-0.1,0.1-0.2,0.2-0.4,0.2c-0.5-0.5-1-1-1.5-1.5c-0.3-0.3-0.6-0.7-1-1c0,0,0-0.1,0.1-0.1
			c0.6-0.5,1-1.1,1.6-1.6c0,0,0,0,0.1-0.1c-0.3-0.1-0.6-0.1-0.9-0.2c-0.1,0-0.3,0-0.3-0.2c0.7,0.2,1.5,0.3,2.2,0.5
			c0.4,0.1,0.8,0.1,1.1,0.2c0.4,0.1,0.8,0.1,1.2,0.1C30.7,44.6,31.1,44.6,31.6,44.6z"/>
		<path class="st12" d="M25.7,43.8c0.3,0.2,0.7,0.2,1.1,0.3c0.1,0,0.2,0,0.2,0.1c0,0.1-0.1,0.1-0.1,0.2c-0.4,0.4-0.8,0.7-1.1,1.2
			c-0.2,0.2-0.4,0.4-0.7,0.5C25,46,25,45.9,24.9,45.9c-1.5-1.5-3-3-4.6-4.6c0,0-0.2-0.1-0.1-0.2c0.4,0.3,0.8,0.6,1.2,0.9
			c0.6,0.4,1.2,0.7,1.9,1c0.1,0.1,0.2,0.1,0.4,0.2c0.6,0.3,1.2,0.5,1.8,0.6C25.6,43.8,25.7,43.8,25.7,43.8z"/>
		<path class="st10" d="M43.9,27.4c0.3-0.1,0.4-0.4,0.6-0.6c0.4-0.4,0.8-0.7,1.1-1.1c0.4-0.4,0.8-0.8,1.2-1.2
			c0.6-0.5,1.2-1.1,1.7-1.7c0.5-0.5,1-0.9,1.4-1.4c0.3-0.3,0.6-0.7,1-0.9c0.1,0.1,0.2,0.1,0.3,0.3c-0.2,0-0.2,0.1-0.3,0.2
			c-0.5,0.5-1,0.9-1.4,1.4c-0.2,0.3-0.5,0.5-0.8,0.7c-0.2,0.1-0.2,0.3-0.3,0.4c-0.5,0.4-0.9,0.9-1.4,1.3c-0.4,0.3-0.7,0.7-1.1,1.1
			c-0.3,0.3-0.6,0.5-0.8,0.8c-0.3,0.4-0.8,0.7-1.1,1.2c-0.1,0.2-0.4,0.3-0.5,0.5c-0.4,0.3-0.6,0.8-1,1.1c-0.4,0.3-0.7,0.6-1,1
			c-0.6,0.6-1.3,1.2-1.8,1.9c-0.2,0.1-0.4,0-0.6,0c-0.1,0-0.1-0.1-0.1-0.2c0-0.1,0.1-0.2,0.2-0.3c0.8-0.8,1.6-1.6,2.4-2.4
			c0.2-0.2,0.4-0.4,0.6-0.5c0.1-0.1,0.1-0.1,0.2-0.2c0.3-0.3,0.7-0.5,1-0.8c0.1-0.1,0.2-0.2,0.3-0.4C43.7,27.4,43.8,27.4,43.9,27.4z
			"/>
		<path class="st3" d="M44.2,36.1c0,0,0,0.1,0,0.2c-0.1,1.1-0.1,2.1-0.2,3.2c0,0.5,0,1,0,1.5c0,0.1,0,0.3,0,0.4c0,0.2,0,0.4-0.3,0.4
			c0.2-0.1,0.2-0.3,0.2-0.5c0-1.5,0.1-3,0.2-4.6C44.1,36.6,44.1,36.3,44.2,36.1C44.2,36.1,44.2,36.1,44.2,36.1z"/>
		<path class="st3" d="M42.7,42.3c-0.3,0.1-0.5,0.2-0.8,0.3c-0.1,0-0.2,0.1-0.4,0.1c0.4-0.2,0.9-0.4,1.3-0.5
			C42.8,42.2,42.7,42.2,42.7,42.3z"/>
		<path class="st3" d="M43.1,42c0.2-0.1,0.4-0.2,0.6-0.2C43.5,42,43.3,42,43.1,42z"/>
		<path class="st3" d="M42.9,42.1c0.1-0.1,0.2-0.1,0.3-0.1C43.1,42.1,43,42.1,42.9,42.1z"/>
		<path class="st14" d="M42.3,16.5c0,0.1,0,0.2,0.1,0.4c0.1,0.2,0,0.4-0.1,0.5c-0.3,0.2-0.6,0.5-0.8,0.8c-0.3,0.3-0.7,0.7-1,1
			c-0.3,0.3-0.6,0.7-0.9,1c-0.1,0.1-0.3,0.2-0.3,0.4c-0.1,0.1-0.2,0.1-0.3,0.1c-1.1,0-2.2,0-3.3,0c0,0,0,0,0,0c0,0,0,0,0,0
			c0.1,0,0.2,0,0.3,0c0,0,0,0,0.1,0c0.2,0.1,0.4,0,0.6,0.1c0,0,0,0,0,0.1c0,0.1,0,0.3,0.1,0.4c0,0,0,0.1,0,0.1c0,0.5,0,1,0,1.4
			c0,0.1,0,0.1,0,0.2c0,0.1-0.1,0.2-0.2,0.3c-0.5,0.5-1.1,1-1.6,1.5c-0.3,0.4-0.7,0.7-1.1,1.1c0,0-0.1,0.1-0.2,0.1
			c-0.1,0.1-0.2,0-0.3-0.1c-0.1-0.3-0.1-0.6-0.1-0.9c0-0.4-0.1-0.7-0.1-1.1c0-0.9-0.1-1.8-0.1-2.7c0-0.4,0-0.4,0.4-0.5
			c0.2,0,0.5-0.1,0.7-0.1c-0.6,0-1.1,0-1.7,0c-0.1,0-0.2,0-0.2,0.1c-0.1,0.1-0.1,0.2-0.1,0.2c-0.8,1.8-1.8,3.4-2.6,5.1
			c-0.2,0.4-0.4,0.8-0.6,1.2c-0.2,0.3-0.3,0.3-0.5,0c-0.4-0.6-0.6-1.1-0.9-1.7c-0.8-1.5-1.6-3-2.4-4.5c-0.2-0.3-0.4-0.4-0.7-0.4
			c-0.4,0-0.8,0.1-1.2,0c0.4,0,1,0.6,1,1.1c0,0.8,0,1.6-0.1,2.4c-0.1,1.1-0.2,2.1-0.3,3.2c0,0.3,0,0.7-0.1,1
			c-0.1,0.5-0.2,0.6-0.7,0.6c0.5-0.1,1-0.1,1.4,0c-0.3,0-0.4-0.1-0.4-0.6c0-0.9,0.1-1.8,0.1-2.7c0-0.8,0.1-1.5,0.2-2.3
			c0-0.3,0-0.6,0.2-0.9c0.2-0.1,0.3,0.1,0.3,0.2c0.2,0.3,0.4,0.7,0.5,1c0.2,0.3,0.4,0.7,0.6,1c0.7,1.3,1.4,2.6,2.1,3.9
			c0,0.1,0.1,0.2,0.2,0.3c0.2-0.3,0.3-0.6,0.5-0.8c0.1-0.2,0.1-0.3,0.3-0.5c0.2-0.1,0.2-0.3,0.3-0.5c0,0,0,0,0-0.1
			c0-0.1,0.1-0.1,0.1-0.2c0-0.1,0.1-0.1,0.1-0.2c0.2-0.2,0.3-0.4,0.3-0.6c0,0,0-0.1,0.1-0.1c0,0,0.1-0.1,0.1-0.2c0,0,0,0,0-0.1
			c0.1-0.2,0.2-0.3,0.3-0.5c0-0.2,0.1-0.3,0.3-0.5c0.1-0.1,0.1-0.2,0.2-0.3c0.1,0,0.1-0.2,0.1-0.2c0,0,0-0.1,0.1-0.1
			c0.1-0.1,0.1-0.2,0.1-0.3c0-0.1,0.1-0.1,0.1-0.2c0.2-0.2,0.2-0.4,0.3-0.6c0-0.1,0.1-0.2,0.1-0.3c0,0,0.1-0.1,0.1-0.1
			c0.1,0.1,0.1,0.2,0.1,0.3c0.1,0.9,0.2,1.8,0.3,2.6c0,0.3,0,0.6,0,0.9c0,0.1,0,0.2,0,0.3c0,0.2,0,0.4,0,0.6
			c-0.5,0.3-0.7,0.8-1.2,1.2c-0.2,0.1-0.3,0.4-0.5,0.6c-0.1,0.1-0.3,0.3-0.4,0.4c-0.3,0.2-0.5,0.5-0.7,0.7c-0.7,0.6-1.3,1.2-1.9,1.9
			c-0.4,0.5-0.9,0.8-1.3,1.3c-0.2,0.2-0.3,0.4-0.6,0.5c0,0-0.1,0-0.1,0.1c-0.2,0.4-0.6,0.6-0.9,0.9c-0.6,0.6-1.2,1.2-1.8,1.8
			c-0.1,0.1-0.2,0.3-0.4,0c-0.7-0.9-1.3-1.9-1.7-2.9c-0.9-2.1-1.2-4.4-1.1-6.6c0.1-1.8,0.4-3.5,1.1-5.2c0.6-1.4,1.3-2.7,2.3-3.9
			c1.1-1.3,2.5-2.2,4-2.9c2-0.9,4.1-1.3,6.3-1.3c2.4,0,4.7,0.2,7.1,0.6c0.4,0.1,0.9,0.2,1.3,0.3c0.3,0,0.4,0.2,0.5,0.5
			C42,15.7,42.2,16.1,42.3,16.5z"/>
		<path class="st11" d="M32.1,20.7c0-0.1,0.1-0.1,0.1-0.1c0.6,0,1.3,0,1.9,0c0.1,0,0.1,0,0.1,0.1c0,0.1-0.1,0.1-0.1,0.1
			c-0.3,0-0.6,0.1-0.9,0.1c-0.1,0-0.2,0.1-0.2,0.2c0,0.8,0,1.6,0.1,2.4c0,0.4,0,0.8,0.1,1.2c0,0.4,0,0.8,0.1,1.2
			c0,0.2,0.1,0.2,0.2,0.1c0.2-0.2,0.4-0.4,0.6-0.5c0.5-0.4,0.8-1,1.3-1.4c0.2-0.2,0.4-0.3,0.6-0.6c0.1-0.1,0.3-0.2,0.4-0.3
			c0-0.1,0.1-0.1,0.1-0.2c0.1,0,0.1,0.1,0.1,0.3c0,1.3,0,2.7,0,4c0,0.4-0.1,0.8-0.1,1.2c0,0.3-0.2,0.4-0.5,0.5c-0.2,0-0.3,0-0.5,0
			c0.1,0,0.2,0,0.2,0c1.6,0,3.3,0,4.9,0c0.2,0,0.3,0,0.5-0.1c0.1,0,0.2,0,0.3-0.1c0.1,0,0.3,0,0.4-0.1c0.2-0.1,0.4-0.2,0.6-0.2
			c0,0.3-0.3,0.4-0.5,0.6c-0.4,0.3-0.7,0.7-1,1c-0.5,0.5-1.1,1.1-1.6,1.6c-0.1,0.1-0.2,0.2-0.2,0.4c-0.1,0-0.2,0-0.3,0
			c-1.6,0-3.2,0-4.8,0c-0.1,0-0.1,0-0.2,0c-0.1,0-0.1,0-0.2,0.1c0,0.1,0,0.1,0.1,0.2c0.1,0.1,0.3,0.1,0.4,0.1
			c0.7,0.1,1.4,0.2,2.1,0.3c0.5,0.1,0.9,0.1,1.4,0.2c0.1,0,0.3,0,0.4,0l0,0c0,0.1-0.1,0.2-0.1,0.3c-0.7,0.7-1.4,1.5-2.2,2.2
			c-0.8,0.8-1.6,1.5-2.3,2.3c-0.6,0.6-1.1,1.2-1.7,1.7c-0.7,0.6-1.4,1.3-2,2c-0.2,0.2-0.3,0.2-0.6,0.1c-0.1,0-0.2-0.1-0.3-0.1
			c-0.7-0.2-1.4-0.5-2-0.9c-1.6-0.9-3-2.1-4.2-3.6c0,0-0.1-0.1-0.1-0.1c0.1-0.2,0.2-0.3,0.4-0.5c0.3-0.4,0.7-0.6,1-1
			c0.3-0.4,0.7-0.8,1.1-1.1c0,0,0.1,0,0.1-0.1c0.2-0.4,0.5-0.6,0.8-0.8c0.3-0.3,0.6-0.6,0.9-0.9c0.6-0.6,1.1-1.2,1.7-1.7
			c0.4-0.4,0.8-0.7,1.1-1.1c0.4-0.4,0.9-0.8,1.2-1.3c0-0.1,0.1-0.1,0.2-0.2c0.2-0.1,0.4-0.3,0.5-0.5c0.1-0.2,0.4-0.3,0.6-0.6
			c0-0.2,0-0.5,0-0.7c0-0.1-0.1-0.1,0-0.2c0-1.1-0.1-2.1-0.2-3.1c0-0.3,0-0.6-0.1-0.8c0.1-0.1,0.2,0,0.2,0.1c0,0.2,0.1,0.5,0.1,0.7
			c0,0.2,0,0.5,0.1,0.7c0,0.4,0,0.8,0.1,1.2c0,0.3,0,0.6,0,0.9c0,0.6,0,1.3,0,1.9c0,0.1,0,0.2,0,0.4c0,0.4-0.1,0.6-0.5,0.6
			c-0.1,0-0.2,0-0.3,0c0.8,0,1.7,0,2.5,0c-0.4-0.1-0.5-0.1-0.6-0.5c-0.1-0.7-0.2-1.4-0.2-2.1c-0.1-0.9-0.1-1.9-0.2-2.8
			C33,22.8,33,21.9,33,21.1c0-0.3,0.1-0.3,0.3-0.4c0.2,0,0.3,0,0.5,0c0,0,0.1,0,0.1,0c-0.1,0-0.3,0-0.5,0
			C33,20.7,32.6,20.8,32.1,20.7z"/>
		<path class="st10" d="M28.8,41.7C28.8,41.7,28.9,41.7,28.8,41.7c0.5,0.2,0.7,0,0.9-0.2c0.5-0.5,1.1-1.1,1.6-1.6
			c0.4-0.4,0.8-0.8,1.2-1.2c0.3-0.4,0.8-0.8,1.2-1.2c0.4-0.5,0.9-0.9,1.4-1.4c0.6-0.6,1.2-1.1,1.7-1.7c0.4-0.4,0.8-0.8,1.2-1.3
			c0.3,0,0.6,0.1,1,0.1c0.1,0,0.2,0.1,0.2,0.2c0.4,2.6,0.6,5.2,0.1,7.9c-0.1,0.7,0,0.6-0.8,0.7c-1.2,0.2-2.4,0.4-3.6,0.5
			c-1.8,0.1-3.5-0.1-5.2-0.6C29.4,41.9,29.1,41.8,28.8,41.7z"/>
		<path class="st15" d="M19.9,39.7c-0.5-0.5-1-1-1.4-1.6c-0.9-1.1-1.6-2.3-2.1-3.6c-0.6-1.6-1-3.3-1-5.1c0-2.5,0.4-4.9,1.3-7.2
			c0.7-1.7,1.7-3.2,2.9-4.5c0.9-1,1.9-1.8,3.1-2.5c1.6-1,3.3-1.6,5.1-2c1.7-0.3,3.5-0.4,5.2-0.3c0.2,0,0.4,0,0.7,0
			c0.1,0,0.2,0,0.2,0.1c0,0.1-0.1,0.1-0.2,0.1c-0.5,0-1,0.1-1.4,0.1c-2.2,0-4.3,0.4-6.3,1.2c-2.3,0.9-4.3,2.2-5.8,4.2
			c-1.5,1.9-2.4,4-2.9,6.4c-0.4,2.4-0.4,4.8,0.1,7.2c0.5,1.9,1.2,3.6,2.3,5.2c0.2,0.3,0.5,0.6,0.7,1c0,0.1,0.1,0.2,0.2,0.3
			c0.1,0.1,0.1,0.2,0,0.3c-0.2,0.3-0.5,0.5-0.8,0.8C20,39.7,19.9,39.7,19.9,39.7z"/>
		<path class="st16" d="M40.2,33.3c0-0.1,0.1-0.2,0.3-0.2c0.4,0,0.7,0,1.1,0c0.1,0,0.2,0,0.2,0.2c0,2.5,0,5,0,7.4
			c0,0.2-0.1,0.4-0.3,0.5c-0.4,0.1-0.8,0.3-1.2,0.4c0,0,0,0-0.1,0c0-0.1,0-0.2,0-0.3c0-2,0-4.1,0-6.1C40.2,34.5,40.2,33.9,40.2,33.3
			z"/>
		<path class="st17" d="M24.2,41.3c0.6,0.3,1.2,0.6,1.9,0.9c1.4,0.5,2.8,0.9,4.3,1.1c1.3,0.2,2.5,0.3,3.8,0.3c0,0,0,0,0,0
			c0.1,0,0.3,0,0.3,0.1c0,0.1-0.2,0.1-0.3,0.1C33,44,31.8,44.1,30.6,44c-1.4-0.1-2.8-0.3-4.1-0.7c-0.9-0.3-1.8-0.6-2.7-1
			c0-0.2,0.1-0.2,0.2-0.3c0.1-0.1,0.2-0.1,0.2-0.2c0.1-0.1,0.2-0.2,0-0.3C24.2,41.4,24.2,41.4,24.2,41.3z"/>
		<path class="st18" d="M24.2,41.3C24.2,41.3,24.2,41.3,24.2,41.3c0,0.1,0.3,0.1,0.2,0.2c0,0.1-0.1,0.3-0.3,0.3
			c-0.2,0.1-0.3,0.3-0.4,0.4c-0.9-0.4-1.8-1-2.6-1.6c-0.4-0.3-0.8-0.6-1.2-1c0.3-0.3,0.5-0.5,0.8-0.8c0.1-0.1,0.1-0.2,0-0.3
			c-0.1-0.1-0.1-0.1-0.1-0.2c0.5,0.5,1,1,1.5,1.5c0.6,0.5,1.2,0.9,1.9,1.3C24.1,41.2,24.1,41.2,24.2,41.3z"/>
		<path class="st14" d="M32.1,27.3c0,0.1,0,0.2-0.1,0.3c-0.2,0.1-0.4,0.3-0.5,0.5c-0.1,0.1-0.2,0.2-0.3,0.3
			c-0.1,0.1-0.3,0.2-0.4,0.3c-0.3,0.4-0.6,0.7-0.9,0.9c-0.2,0.1-0.2,0.3-0.4,0.4c-0.2,0.2-0.5,0.4-0.7,0.7c-0.2,0.3-0.5,0.6-0.8,0.8
			c-0.3,0.3-0.6,0.5-0.8,0.8c-0.2,0.3-0.5,0.5-0.7,0.7c-0.2,0.1-0.3,0.3-0.5,0.5c-0.2,0.2-0.5,0.4-0.6,0.6c-0.4,0.5-1,0.9-1.3,1.3
			c-0.4,0.5-0.8,0.8-1.2,1.2c-0.1,0.1-0.2,0.2-0.3,0.3c-0.1-0.1-0.2-0.1-0.2-0.3c0.1,0.1,0.2,0.1,0.3,0c0.4-0.5,0.8-0.8,1.2-1.3
			c0.3-0.4,0.7-0.7,1.1-1c0.1-0.1,0.2-0.1,0.2-0.2c0.1-0.2,0.2-0.3,0.4-0.4c0.2-0.1,0.3-0.3,0.4-0.4c0.6-0.6,1.2-1.2,1.7-1.8
			c0.4-0.5,0.9-0.9,1.3-1.3c0.2-0.2,0.5-0.4,0.7-0.7c0.2-0.2,0.5-0.4,0.7-0.6c0.4-0.5,0.9-1,1.4-1.4C31.9,27.4,32,27.3,32.1,27.3z"
			/>
		<path class="st5" d="M38,33.1c-0.5,0-1.1-0.1-1.6-0.2c-0.7-0.1-1.5-0.2-2.2-0.3c-0.1,0-0.3,0-0.4,0c-0.1,0-0.3-0.1-0.3-0.2
			c0-0.2,0.2-0.2,0.3-0.2c1.7,0,3.4,0,5.2,0c0.2,0,0.4,0,0.6,0c2.7,0,5.3,0,8,0c0.1,0,0.3-0.1,0.3,0.2c-0.2-0.1-0.3-0.1-0.5-0.1
			c-4.5,0-9,0-13.5,0c0,0-0.1,0-0.1,0c-0.1,0-0.2,0-0.2,0.1c0,0.1,0.1,0.1,0.2,0.2c0.3,0,0.6,0.1,0.9,0.1C35.8,32.8,36.9,33,38,33.1
			z"/>
		<path class="st19" d="M40.2,33.3c0.1,0.1,0,0.2,0,0.3c0,2.6,0,5.2,0,7.8c0,0.1,0,0.2,0,0.3c0-0.1,0-0.3,0-0.4c0-2.5,0-5.1,0-7.6
			C40.1,33.5,40.1,33.4,40.2,33.3z"/>
		<path class="st5" d="M44.2,36.1C44.2,36.1,44.2,36.1,44.2,36.1c0-0.8,0.1-1.5,0.2-2.2c0-0.1,0-0.3,0.1-0.4c0-0.1,0.1-0.2,0.2-0.2
			c-0.2,0.2-0.2,0.4-0.2,0.6c0,0.2-0.1,0.5-0.1,0.7C44.4,35.1,44.2,35.6,44.2,36.1C44.2,36.1,44.2,36.1,44.2,36.1z"/>
		<path class="st3" d="M36.5,44.1c-0.5,0.1-1.1,0.1-1.6,0.2c-0.2,0-0.3,0-0.5,0c0.6-0.1,1.2-0.2,1.8-0.3c0.4-0.1,0.8-0.1,1.2-0.2
			C37.3,44,37,44,36.7,44.1C36.7,44.1,36.6,44.1,36.5,44.1z"/>
		<path class="st5" d="M47.8,32.6c-0.1,0.1-0.2,0.1-0.3,0.1c-0.6,0.1-1.2,0.3-1.8,0.4c-0.1,0-0.2,0-0.3,0
			C46.1,32.9,47,32.8,47.8,32.6z"/>
		<path class="st10" d="M25.6,43.8c-0.6-0.1-1.2-0.3-1.8-0.6C24.4,43.4,25,43.6,25.6,43.8z"/>
		<path class="st3" d="M41.5,42.6C41.5,42.7,41.5,42.7,41.5,42.6c-0.6,0.2-1.1,0.5-1.6,0.6C40.5,43,41,42.8,41.5,42.6z"/>
		<path class="st3" d="M39.9,43.2c-0.5,0.2-1,0.4-1.6,0.5C38.9,43.5,39.4,43.3,39.9,43.2z"/>
		<path class="st13" d="M30.2,44.5c-0.4,0-0.8,0.1-1.2-0.1C29.5,44.5,29.8,44.5,30.2,44.5z"/>
		<path class="st5" d="M45.3,33.1c-0.1,0.1-0.2,0-0.3,0.1C45.2,33.2,45.3,33.1,45.3,33.1z"/>
		<path class="st3" d="M38.4,43.7c-0.1,0.1-0.2,0-0.3,0.1C38.2,43.7,38.3,43.7,38.4,43.7z"/>
		<path class="st9" d="M42.4,28.6c-0.2,0.1-0.4,0.2-0.6,0.3C41.6,29,41.5,29,41.4,29c-0.1,0.1-0.2,0-0.2,0c-0.2,0-0.5,0.1-0.7,0.1
			c-1.6,0-3.3,0-4.9,0c0,0-0.1,0-0.2,0c0,0-0.1,0-0.1-0.1c0-0.1,0.1-0.1,0.1-0.1c0.2,0,0.4-0.1,0.6-0.1c0.4,0,0.4-0.1,0.4-0.4
			c0.2-1.7,0.2-3.4,0.1-5.1c0-0.1,0-0.2,0-0.4c0-0.1,0-0.1,0-0.2c-0.1-0.3,0-0.6,0-0.9c0-0.2,0-0.4,0-0.6l0,0l0,0
			c-0.1-0.1,0-0.3,0-0.4l0,0l0,0c-0.2,0-0.4,0-0.7-0.1h0c0,0-0.1,0-0.1,0c-0.1,0-0.2,0-0.2-0.1c0-0.1,0.1-0.1,0.1-0.1
			c1.2,0,2.4,0,3.6,0c0,0,0,0,0.1,0c0,0,0.1,0,0.1,0c0,0,0,0,0,0c0,0,0,0,0,0c-0.1,0.1-0.2,0-0.3,0.1c0.1,0,0.1,0,0.1,0.1
			c0,0,0,0,0,0.1c-0.2,0.1-0.4,0-0.6,0.1c0,0-0.1,0-0.1,0c-0.4,0.1-0.5,0.1-0.5,0.6c0,1.5-0.2,2.9-0.1,4.4c0,0.7,0,1.4,0.1,2
			c0,0.2,0.1,0.3,0.3,0.4c0.1,0,0.3,0.1,0.4,0.1c0.2,0.1,0.4,0.1,0.6,0.1c0.4,0,0.7,0,1.1,0c0.1,0,0.1,0,0.2,0c0,0,0,0.1,0,0.1
			c0.2,0,0.4,0,0.6-0.1c0.5-0.1,0.9-0.4,1.3-0.7c0.1,0,0.2-0.1,0.3-0.2c0.2-0.3,0.4-0.5,0.6-0.8c1-1.6,0.7-3.8-0.6-5.1
			c-0.4-0.4-0.8-0.7-1.4-0.8c-0.3-0.1-0.7-0.2-1-0.2c-0.1,0-0.3,0-0.4-0.1c0,0,0-0.1,0-0.1c0.2,0,0.4,0,0.6,0l0,0
			c0.3,0,0.7,0.1,1,0.2c0.8,0.2,1.5,0.6,2,1.2c0.1,0.1,0.1,0.2,0.2,0.2c0.5,0.7,0.7,1.5,0.8,2.3c0,1-0.2,1.9-0.7,2.7
			c0,0.1-0.1,0.2-0.2,0.2C43.3,28,42.9,28.3,42.4,28.6z"/>
		<path class="st20" d="M39.2,20.6c-0.4,0-0.8,0-1.2,0c-0.8,0-1.7,0-2.5,0c0.1,0.1,0.2,0,0.2,0.1c-0.1,0-0.2,0-0.4,0h0
			c-0.1,0-0.1,0-0.1-0.1c1.3,0,2.5,0,3.8,0C39.1,20.6,39.2,20.6,39.2,20.6z"/>
		<path class="st21" d="M41.5,20.8c-0.3,0-0.7-0.1-1-0.2C40.9,20.6,41.2,20.7,41.5,20.8z"/>
		<path class="st21" d="M39.4,20.7C39.4,20.6,39.4,20.6,39.4,20.7c0.2-0.1,0.3-0.1,0.5,0c0,0,0,0,0.1,0c0,0,0,0,0,0
			c-0.1,0.1-0.3,0.1-0.4,0.1C39.5,20.8,39.4,20.7,39.4,20.7z"/>
		<path class="st22" d="M39.9,20.7C39.9,20.6,39.9,20.6,39.9,20.7c0.2-0.1,0.4-0.1,0.6,0C40.3,20.7,40.1,20.7,39.9,20.7z"/>
		<path class="st10" d="M43.7,27.5c0.1-0.1,0.1-0.1,0.2-0.2c0,0,0,0.1,0,0.1C43.8,27.4,43.7,27.5,43.7,27.5z"/>
		<path class="st9" d="M31.3,29c0.2,0,0.4,0,0.5-0.1c0.3,0,0.4-0.1,0.4-0.4c0-0.8,0-1.6,0-2.4c0-0.3,0-0.6,0-0.8c0,0,0-0.1,0.1-0.1
			c0.1,0.1,0.1,0.2,0.1,0.3c0,0.1,0,0.2,0,0.3c0.1,0.8,0.1,1.6,0.2,2.4c0,0.1,0,0.2,0,0.4c0,0.1,0,0.2,0.1,0.2
			c0.1,0,0.1-0.1,0.1-0.2c0-0.2,0-0.5-0.1-0.7c-0.1-0.6-0.1-1.2-0.1-1.8c0-0.8-0.1-1.7-0.2-2.5c0-0.6-0.1-1.1-0.1-1.7
			c0-0.1,0-0.2,0-0.3c-0.1,0.2-0.1,0.3-0.1,0.5c0,0.6,0,1.1,0.1,1.7c0,0.2,0,0.4,0,0.6c0,0.1,0,0.2-0.1,0.3c-0.1-0.2,0-0.3-0.1-0.5
			c-0.1-0.4-0.1-0.9-0.2-1.4c0-0.1,0-0.2-0.1-0.2c0,0,0,0,0,0.1c-0.1,0.3-0.3,0.5-0.4,0.8c0,0-0.1,0.1-0.1,0.1c0,0-0.1,0.1-0.1,0.2
			c0,0.1-0.1,0.2-0.2,0.3c0,0,0,0.1,0,0.1c0,0.1,0,0.2-0.1,0.2c-0.1,0.1-0.1,0.3-0.2,0.4c-0.1,0.1-0.2,0.3-0.2,0.4
			c-0.1,0.2-0.2,0.4-0.3,0.6l0,0c0,0.1,0,0.2-0.1,0.2c0,0,0,0,0,0.1c-0.1,0.2-0.2,0.5-0.4,0.7c0,0-0.1,0.1-0.1,0.2
			c0,0.1,0,0.2-0.1,0.2v0c-0.1,0.2-0.2,0.4-0.3,0.6c-0.3,0.5-0.5,1-0.8,1.4C28.1,29,28,28.8,28,28.7c0,0,0-0.1,0-0.1
			c0.2-0.3,0.2-0.4,0.1-0.7c-0.7-1.3-1.5-2.7-2.2-4c-0.5-0.8-0.9-1.7-1.4-2.6c-0.1-0.1-0.1-0.3-0.3-0.4c-0.1,0-0.1-0.1-0.2,0
			c-0.1,0.1,0,0.1,0,0.2c0.2,0.4,0.4,0.7,0.6,1.1c0,0.1,0.1,0.2,0.1,0.3c0,0.1-0.1,0-0.2,0c-0.2,1.6-0.3,3.3-0.4,4.9
			c0,0.4,0,0.8,0,1.2c0,0.2,0.1,0.3,0.3,0.3c0.2,0,0.3,0,0.5,0.1c-0.8,0-1.5,0-2.2,0c0.1-0.1,0.3-0.1,0.5-0.1c0.2,0,0.4-0.1,0.4-0.4
			c0.1-2.2,0.5-4.4,0.5-6.6c0-0.6-0.4-1-0.9-1.2c-0.1,0-0.3,0-0.4-0.1c0-0.1,0.1,0,0.2,0c0.5,0,1.1,0,1.6,0c0.2,0,0.4,0.1,0.5,0.3
			c0.7,1.3,1.4,2.6,2.1,3.9c0.4,0.8,0.8,1.6,1.3,2.4c0.2,0.3,0.2,0.3,0.3,0c1-1.8,2-3.7,2.9-5.5c0.2-0.3,0.3-0.7,0.5-1
			c0.1-0.1,0.3-0.1,0.5-0.1c0.3,0,0.6,0,0.8,0c0.1,0.1,0.2,0,0.2,0c0,0,0.1,0,0.1,0.1c-0.2,0-0.4,0.1-0.6,0.1
			c-0.2,0-0.2,0.1-0.2,0.2c0,0.7,0,1.4,0.1,2.1c0.1,1.5,0.2,2.9,0.3,4.4c0,0.3,0.1,0.7,0.1,1c0,0.2,0.1,0.2,0.3,0.3
			c0.1,0,0.3,0.1,0.4,0.1c0,0.1-0.1,0.1-0.1,0.1c-0.9,0-1.8,0-2.8,0C31.4,29.1,31.3,29.1,31.3,29z"/>
		<path class="st23" d="M28,28.6c0,0,0,0.1-0.1,0.1c-0.4-0.6-0.6-1.1-0.9-1.7c-0.4-0.7-0.8-1.5-1.2-2.2c0-0.1,0-0.1,0-0.1
			c0.1,0,0.2,0.1,0.2,0.2c0.6,1.1,1.2,2.3,1.8,3.4C28,28.4,28,28.5,28,28.6z"/>
		<path class="st24" d="M25.9,24.7C25.9,24.7,25.8,24.7,25.9,24.7c-0.4-0.6-0.8-1.3-1.2-2c0-0.1,0-0.2-0.2-0.2c0-0.1,0.1,0,0.2-0.1
			c0.1,0,0.2,0.1,0.2,0.2c0.3,0.6,0.6,1.2,1,1.8C25.9,24.5,25.9,24.6,25.9,24.7z"/>
		<path class="st11" d="M36.5,21.3c0.1,0.5,0.1,1,0,1.5c-0.1-0.1,0-0.2-0.1-0.3C36.5,22.1,36.5,21.7,36.5,21.3z"/>
		<path class="st14" d="M31.1,23.5c0.2-0.3,0.3-0.6,0.5-0.9c0,0.3-0.3,0.5-0.3,0.8C31.3,23.5,31.2,23.5,31.1,23.5z"/>
		<path class="st11" d="M29.5,26.7c0.1-0.2,0.2-0.5,0.4-0.7C29.7,26.2,29.7,26.5,29.5,26.7z"/>
		<path class="st11" d="M30,25.7c0.1-0.2,0.2-0.4,0.3-0.6C30.2,25.3,30.2,25.5,30,25.7z"/>
		<path class="st11" d="M28.9,27.6c0.1-0.2,0.2-0.4,0.3-0.6C29.2,27.3,29.1,27.5,28.9,27.6z"/>
		<path class="st11" d="M35.7,20.8c0.2,0,0.5,0,0.7,0.1C36.2,20.9,36,20.9,35.7,20.8z"/>
		<path class="st11" d="M30.5,24.7c0-0.1,0.1-0.3,0.2-0.4c0,0,0,0,0,0.1C30.7,24.4,30.7,24.6,30.5,24.7z"/>
		<path class="st14" d="M30.8,24.3C30.8,24.3,30.8,24.3,30.8,24.3c0-0.2,0-0.2,0.1-0.3C30.9,24.1,31,24.3,30.8,24.3z"/>
		<path class="st14" d="M30.9,24c0.1-0.1,0.1-0.2,0.2-0.3C31.1,23.8,31,23.9,30.9,24z"/>
		<path class="st11" d="M36.4,20.9c0,0.1,0.1,0.3,0,0.4C36.4,21.2,36.4,21,36.4,20.9z"/>
		<path class="st11" d="M35.4,20.7c0.1,0,0.2,0,0.4,0c0,0,0,0,0,0C35.6,20.8,35.5,20.8,35.4,20.7z"/>
		<path class="st11" d="M35.3,20.6c-0.1,0.1,0,0.1,0.1,0.1C35.3,20.7,35.2,20.7,35.3,20.6C35.2,20.6,35.3,20.6,35.3,20.6z"/>
		<path class="st14" d="M32,26.4c0,0.1,0,0.1,0,0.2C32,26.6,32,26.5,32,26.4z"/>
		<path class="st11" d="M29.3,27.1c0-0.1,0-0.2,0.1-0.2C29.4,26.9,29.3,27,29.3,27.1z"/>
		<path class="st11" d="M29.9,25.9c0-0.1,0-0.1,0.1-0.2C30,25.8,30,25.9,29.9,25.9z"/>
		<path class="st10" d="M36,28.9c-0.2,0.1-0.5,0-0.7,0.2c1.9,0,3.9,0.1,5.9,0c-0.1,0.1-0.3,0.1-0.5,0.1c-1.7,0-3.5,0-5.2,0
			c0,0-0.1,0-0.2,0c-0.1,0-0.1,0-0.1-0.1c0-0.1,0-0.1,0.1-0.1C35.5,28.9,35.7,28.8,36,28.9z"/>
		<path class="st25" d="M31.3,29c0,0.1,0.1,0,0.2,0c0.9,0,1.8,0,2.7,0c0.1,0,0.1,0,0.2,0c0,0,0.1,0,0.1,0c0,0.1-0.1,0-0.1,0.1
			c-0.6,0-1.3,0-1.9,0c-0.4,0-0.9,0-1.3,0C31.1,29,31.2,29,31.3,29z"/>
		<path class="st26" d="M32,24.1c0.1,0.1,0,0.3,0.1,0.4c0-0.1,0-0.2,0-0.3c0,0,0,0,0,0c0.1,0.2,0.2,0.8,0,1c0,0,0,0,0,0c0,0,0,0,0,0
			C32,24.8,32,24.5,32,24.1z"/>
		<path class="st27" d="M33.8,20.7c-0.1-0.1-0.3,0-0.4-0.1c0.2,0,0.5,0,0.8,0C34.1,20.7,34,20.7,33.8,20.7z"/>
		<path class="st26" d="M32.1,25.2C32.1,25.2,32.1,25.2,32.1,25.2c0,0.3,0,0.6,0,0.9C32.1,25.8,32.1,25.5,32.1,25.2z"/>
		<path class="st10" d="M41.4,29c0.1,0,0.2-0.1,0.4-0.1C41.7,29.1,41.5,29,41.4,29z"/>
		<path class="st11" d="M38.6,28.7c-0.2,0-0.3-0.1-0.5-0.1c-0.2,0-0.3-0.1-0.3-0.3c0-1.5-0.2-2.9-0.1-4.4c0-0.8,0.1-1.5,0.1-2.3
			c0-0.5,0-0.5,0.5-0.6c0.1,0,0.1,0,0.2,0c0.8-0.1,1.5-0.1,2.3,0.2c0.1,0,0.2,0.1,0.3,0.1c1.2,0.5,1.9,1.4,2.1,2.7
			c0.2,1.4,0.1,2.6-0.9,3.7c-0.2,0.2-0.5,0.4-0.7,0.6C40.6,28.9,39.6,28.8,38.6,28.7z"/>
		<path class="st17" d="M41.4,21c1.3,0.5,2.1,1.4,2.4,2.7c0.4,1.6,0,3-1.1,4.1c-0.1,0.1-0.2,0.2-0.3,0.2c-0.4,0.3-0.8,0.6-1.3,0.7
			c-0.2,0.1-0.3,0.1-0.5,0.1c-0.1,0-0.2,0.1-0.2-0.1c0,0,0.1,0,0.1,0c0.1-0.1,0.2-0.1,0.3-0.1c0.3-0.1,0.6-0.2,0.8-0.4
			c1.1-0.7,1.7-1.8,1.7-3.2c0-0.6,0-1.1-0.2-1.7c-0.3-1-0.9-1.7-1.9-2.1c-0.2-0.1-0.4-0.2-0.6-0.2c-0.1,0-0.2-0.1-0.3-0.1
			c-0.1,0-0.2,0-0.2-0.1c0.2-0.1,0.5,0,0.7,0C41,20.9,41.2,21,41.4,21z"/>
		<path class="st16" d="M36.7,24.8c0-1.3,0-2.5,0-3.8c0-0.1,0-0.3,0.2-0.3s0.2,0.1,0.2,0.3c0,2.5,0,5,0,7.6c0,0.1,0.1,0.2-0.1,0.3
			c-0.2,0.1-0.3,0-0.3-0.2c0-1,0-2,0-2.9C36.7,25.4,36.7,25.1,36.7,24.8z"/>
		<path class="st28" d="M41.6,28.3c-0.3,0.3-0.7,0.4-1.1,0.5c-0.1-0.1-0.1,0-0.2,0c-0.5,0-1,0.1-1.6,0c0,0-0.1,0-0.1-0.1
			c0.7,0.1,1.3,0.1,2,0C40.9,28.5,41.2,28.4,41.6,28.3C41.6,28.2,41.6,28.2,41.6,28.3z"/>
		<path class="st29" d="M41.4,21c-0.3-0.1-0.6-0.1-0.9-0.2c-0.1,0-0.2-0.1-0.3,0c0,0-0.1,0.1-0.1,0c-0.3,0-0.6,0-0.8-0.1
			c-0.1,0-0.3,0.1-0.4-0.1c0.2-0.1,0.4,0,0.7,0c0.1,0,0.3,0,0.4,0c0.4,0.1,0.8,0,1.2,0.2C41.2,21,41.3,21,41.4,21z"/>
		<path class="st30" d="M40.6,21c0.2,0,0.4,0.1,0.6,0.2c0,0.1-0.1,0.1-0.1,0.1c-0.8-0.3-1.7-0.4-2.6-0.4c0.2-0.1,0.4,0,0.6-0.1
			C39.7,20.8,40.2,20.9,40.6,21z"/>
		<path class="st31" d="M40.6,21c-0.5,0-1-0.2-1.5-0.2c0,0,0,0,0,0c0.3,0,0.6,0,0.9,0C40.3,20.9,40.5,20.9,40.6,21z"/>
		<path class="st32" d="M40.4,28.8c0.1,0.1,0.3,0,0.4,0c0.1,0,0.2-0.1,0.3,0c-0.2,0.1-0.5,0.1-0.7,0.2c0,0-0.1,0-0.1,0
			C40.2,28.8,40.3,28.8,40.4,28.8z"/>
		<path class="st20" d="M39.5,20.7c-0.2,0-0.4,0-0.7,0c0.2-0.1,0.4,0,0.6-0.1C39.4,20.7,39.5,20.7,39.5,20.7z"/>
		<path class="st33" d="M42.4,28.1c0.1-0.1,0.2-0.2,0.3-0.2C42.6,28,42.5,28.1,42.4,28.1z"/>
		<path class="st15" d="M25.9,24.7c-0.4-0.7-0.8-1.5-1.2-2.2c-0.3-0.5-0.5-1-0.8-1.5c-0.1-0.2,0-0.2,0.1-0.2c0.2,0,0.3,0.1,0.4,0.3
			c0.5,0.8,0.9,1.7,1.4,2.5c0.5,1,1.1,2,1.6,2.9c0.3,0.5,0.5,1,0.8,1.4c0.1,0.3,0.1,0.4-0.2,0.6c-0.5-1-1-1.9-1.6-2.9
			C26.2,25.3,26.1,25,25.9,24.7z"/>
		<path class="st15" d="M32.2,25.2c0-0.3,0-0.7-0.1-1c0-0.7-0.1-1.3-0.1-2c0-0.3,0.1-0.6,0.2-0.9c0,0,0-0.1,0.1-0.1
			c0.1,0,0,0.1,0,0.1c0,0.6,0.1,1.1,0.1,1.7c0.1,1.8,0.3,3.7,0.4,5.6c0,0.2,0,0.3-0.2,0.3c-0.2,0-0.3-0.1-0.3-0.3
			c-0.1-0.9-0.1-1.9-0.2-2.8c0-0.1,0-0.2,0-0.3C32.2,25.4,32.2,25.3,32.2,25.2z"/>
		<path class="st26" d="M32.2,25.5c0,0.1,0,0.2,0,0.3C32.2,25.7,32.2,25.6,32.2,25.5z"/>
		<path class="st34" d="M41.1,21.3c0,0,0.1-0.1,0.1-0.1c1,0.4,1.6,1.1,1.9,2c0.3,1,0.4,2.1,0,3.2c-0.3,0.8-0.8,1.4-1.5,1.8
			c0,0,0,0-0.1-0.1c0.8-0.6,1.4-1.4,1.6-2.4s0.1-2-0.4-3c-0.3-0.6-0.9-1.1-1.5-1.4C41.2,21.4,41.1,21.3,41.1,21.3z"/>
	</g>
	<rect x="59" y="22.7" class="st35" width="135.1" height="13.7"/>
	<text transform="matrix(1 0 0 1 67.9451 35.4435)" class="st9 st36 st37">Website nutzen</text>
</g>
</svg>
